<svg width="138" height="29" viewBox="0 0 138 29" fill="none" xmlns="http://www.w3.org/2000/svg">
<path d="M2.98023e-08 28C0.186667 28 0.373333 27.8133 0.56 27.44C0.746667 27.0667 0.84 26.4533 0.84 25.6V6.4C0.84 5.54667 0.746667 4.94667 0.56 4.6C0.373333 4.22667 0.186667 4.02667 2.98023e-08 4H23.36V5.2L24.16 9.84C23.4933 9.54667 22.32 9.24 20.64 8.92C18.96 8.57333 16.9333 8.4 14.56 8.4H8.64C7.84 8.4 7.36 8.46667 7.2 8.6C7.06667 8.70667 7 9.04 7 9.6V12.56C7 13.1467 7.06667 13.4933 7.2 13.6C7.36 13.7067 7.82667 13.76 8.6 13.76H14.36C15.9067 13.76 17.1467 13.68 18.08 13.52C19.04 13.3333 19.6667 13.1467 19.96 12.96C19.8533 13.4667 19.7333 14.0533 19.6 14.72C19.4667 15.3867 19.36 16.0267 19.28 16.64C19.2 17.2533 19.16 17.76 19.16 18.16H8.6C7.82667 18.16 7.36 18.2133 7.2 18.32C7.06667 18.4 7 18.7467 7 19.36V22.32C7 22.9333 7.06667 23.2933 7.2 23.4C7.33333 23.5067 7.8 23.56 8.6 23.56H19.4C20.9467 23.56 22.1867 23.3867 23.12 23.04C24.08 22.6667 24.7067 22.3067 25 21.96L24.2 26.76V28H2.98023e-08ZM36.2525 28.4C33.8792 28.4 32.0125 27.9733 30.6525 27.12C29.3192 26.2667 28.3725 25.1067 27.8125 23.64C27.2792 22.1733 27.0125 20.52 27.0125 18.68C27.0125 16.8133 27.2792 15.1467 27.8125 13.68C28.3725 12.2133 29.3192 11.0533 30.6525 10.2C32.0125 9.32 33.8792 8.88 36.2525 8.88C37.0525 8.88 37.7725 8.94667 38.4125 9.08C39.0792 9.21333 39.6658 9.4 40.1725 9.64C40.7058 9.85333 41.1725 10.1333 41.5725 10.48L41.6525 10.44L41.5725 9.68V2.8C41.5725 1.94666 41.4792 1.34666 41.2925 1C41.1325 0.626666 40.9592 0.426666 40.7725 0.399998H47.2525V25.6C47.2525 26.4533 47.3325 27.0667 47.4925 27.44C47.6792 27.8133 47.8658 28 48.0525 28H41.5725V27.48L41.6925 26.72L41.5725 26.68C41.1725 27.0267 40.7058 27.3333 40.1725 27.6C39.6392 27.84 39.0392 28.0267 38.3725 28.16C37.7325 28.32 37.0258 28.4 36.2525 28.4ZM36.9325 24.36C37.8125 24.36 38.5458 24.2267 39.1325 23.96C39.7458 23.6933 40.2258 23.32 40.5725 22.84C40.9458 22.3333 41.1992 21.7333 41.3325 21.04C41.4925 20.32 41.5725 19.5333 41.5725 18.68C41.5725 17.8267 41.4925 17.0533 41.3325 16.36C41.1725 15.64 40.9192 15.0267 40.5725 14.52C40.2258 13.9867 39.7458 13.5867 39.1325 13.32C38.5458 13.0267 37.8125 12.88 36.9325 12.88C35.6525 12.88 34.6125 13.32 33.8125 14.2C33.0392 15.08 32.6525 16.5867 32.6525 18.72C32.6525 20.1333 32.8258 21.2533 33.1725 22.08C33.5192 22.9067 34.0125 23.4933 34.6525 23.84C35.2925 24.1867 36.0525 24.36 36.9325 24.36ZM59.9103 28.4C58.3636 28.4 57.0436 28.1333 55.9503 27.6C54.857 27.04 54.0303 26.0933 53.4703 24.76C52.9103 23.4 52.6303 21.52 52.6303 19.12V11.68C52.6303 10.8267 52.537 10.2133 52.3503 9.84C52.1903 9.46667 52.017 9.28 51.8303 9.28H59.1903C59.0036 9.28 58.8036 9.46667 58.5903 9.84C58.4036 10.2133 58.3103 10.8267 58.3103 11.68V19.68C58.3103 21.36 58.617 22.56 59.2303 23.28C59.8703 24 60.6036 24.36 61.4303 24.36C62.6036 24.36 63.5103 24.0933 64.1503 23.56C64.7903 23 65.2436 22.28 65.5103 21.4C65.777 20.4933 65.9103 19.5467 65.9103 18.56V11.68C65.9103 10.8267 65.817 10.2267 65.6303 9.88C65.4703 9.50667 65.297 9.30667 65.1103 9.28H71.5903V25.6C71.5903 26.4533 71.6703 27.0667 71.8303 27.44C72.017 27.8133 72.2036 28 72.3903 28H65.9103V26.44L65.9903 25.64L65.9103 25.56C65.6436 25.96 65.3103 26.3333 64.9103 26.68C64.5103 27.0267 64.057 27.3333 63.5503 27.6C63.0436 27.84 62.4836 28.0267 61.8703 28.16C61.257 28.32 60.6036 28.4 59.9103 28.4Z" fill="#D9ECFF"/>
<path d="M85.9784 28.4C83.8718 28.4 82.1118 28.1867 80.6984 27.76C79.3118 27.3067 78.2051 26.6667 77.3784 25.84C76.5518 24.9867 75.9651 23.96 75.6184 22.76C75.2718 21.56 75.0984 20.2 75.0984 18.68C75.0984 15.6667 75.9384 13.28 77.6184 11.52C79.2984 9.76 81.8718 8.88 85.3384 8.88C87.3651 8.88 89.0051 9.16 90.2584 9.72C91.5384 10.28 92.5118 11.0267 93.1784 11.96C93.8451 12.8933 94.2984 13.9333 94.5384 15.08C94.8051 16.2 94.9384 17.3333 94.9384 18.48V20.36C94.9384 20.28 94.5651 20.2 93.8184 20.12C93.0984 20.0133 91.8718 19.96 90.1384 19.96H80.8584C80.8584 21.4267 81.2984 22.5333 82.1784 23.28C83.0851 24 84.5518 24.36 86.5784 24.36C88.2851 24.36 89.8051 24.16 91.1384 23.76C92.4984 23.3333 93.4851 22.9333 94.0984 22.56V23.76L94.4984 26.8C93.9918 27.1467 93.0184 27.5067 91.5784 27.88C90.1384 28.2267 88.2718 28.4 85.9784 28.4ZM82.3384 16.52H89.2584C89.2584 15.9333 89.1251 15.36 88.8584 14.8C88.6184 14.24 88.2184 13.7867 87.6584 13.44C87.0984 13.0667 86.3251 12.88 85.3384 12.88C84.3518 12.88 83.5518 13.0267 82.9384 13.32C82.3518 13.6133 81.9118 13.9733 81.6184 14.4C81.3518 14.8267 81.2184 15.2667 81.2184 15.72C81.2184 15.9867 81.2984 16.1867 81.4584 16.32C81.6184 16.4533 81.9118 16.52 82.3384 16.52ZM98.3147 28C98.5014 28 98.6747 27.8133 98.8347 27.44C99.0214 27.0667 99.1147 26.4533 99.1147 25.6V12.08C99.1147 11.2267 99.0214 10.6267 98.8347 10.28C98.6747 9.90667 98.5014 9.70667 98.3147 9.68C99.488 9.68 100.688 9.6 101.915 9.44C103.141 9.25333 104.101 9.06667 104.795 8.88V10.48L104.715 11.16L104.795 11.24C104.981 10.9467 105.275 10.6267 105.675 10.28C106.101 9.90667 106.635 9.58667 107.275 9.32C107.941 9.02667 108.715 8.88 109.595 8.88C110.901 8.88 112.061 9.06667 113.075 9.44C114.088 9.78667 114.808 10.1467 115.235 10.52L114.035 15.88V17.08C113.635 16.52 113.088 15.9467 112.395 15.36C111.728 14.7733 110.981 14.28 110.155 13.88C109.355 13.48 108.528 13.28 107.675 13.28C106.715 13.28 105.995 13.6267 105.515 14.32C105.035 15.0133 104.795 16.1067 104.795 17.6V25.6C104.795 26.4533 104.875 27.0667 105.035 27.44C105.221 27.8133 105.408 28 105.595 28H98.3147ZM124.316 28.4C121.916 28.4 119.996 27.9333 118.556 27C117.143 26.04 116.436 24.5067 116.436 22.4C116.436 20.9333 116.809 19.7467 117.556 18.84C118.303 17.9333 119.316 17.2667 120.596 16.84C121.903 16.3867 123.383 16.16 125.036 16.16C126.263 16.16 127.303 16.2667 128.156 16.48C129.036 16.6933 129.743 16.92 130.276 17.16C130.809 17.4 131.156 17.5733 131.316 17.68C131.316 16.56 131.196 15.6533 130.956 14.96C130.716 14.24 130.276 13.72 129.636 13.4C129.023 13.0533 128.156 12.88 127.036 12.88C125.409 12.88 123.969 13.04 122.716 13.36C121.463 13.68 120.436 14.0533 119.636 14.48C118.863 14.9067 118.329 15.2667 118.036 15.56V14.36L117.636 10.44C117.823 10.3333 118.316 10.16 119.116 9.92C119.916 9.68 121.009 9.45333 122.396 9.24C123.783 9 125.436 8.88 127.356 8.88C129.996 8.88 132.009 9.26667 133.396 10.04C134.783 10.7867 135.729 11.8667 136.236 13.28C136.769 14.6933 137.036 16.4 137.036 18.4V25.6C137.036 26.3467 137.116 26.8933 137.276 27.24C137.463 27.56 137.649 27.8133 137.836 28H131.356V27.16L131.436 26.4L131.356 26.32C131.143 26.56 130.836 26.8 130.436 27.04C130.036 27.28 129.543 27.5067 128.956 27.72C128.369 27.9067 127.689 28.0667 126.916 28.2C126.143 28.3333 125.276 28.4 124.316 28.4ZM126.196 24.36C127.316 24.36 128.249 24.28 128.996 24.12C129.769 23.9333 130.356 23.6933 130.756 23.4C131.156 23.08 131.356 22.7067 131.356 22.28C131.356 21.6667 130.889 21.16 129.956 20.76C129.049 20.36 127.809 20.16 126.236 20.16C124.716 20.16 123.636 20.3733 122.996 20.8C122.383 21.2267 122.076 21.76 122.076 22.4C122.076 23.2 122.436 23.7333 123.156 24C123.876 24.24 124.889 24.36 126.196 24.36Z" fill="#FFD054"/>
</svg>
