<svg width="552" height="244" viewBox="0 0 552 244" fill="none" xmlns="http://www.w3.org/2000/svg">
<path d="M418.465 147.474V160.565H416.094V147.474H418.465ZM423.245 154.812V160.565H420.931V150.747H423.142V152.415H423.257C423.483 151.865 423.843 151.428 424.338 151.104C424.836 150.781 425.452 150.619 426.185 150.619C426.863 150.619 427.453 150.764 427.956 151.053C428.463 151.343 428.855 151.763 429.132 152.313C429.413 152.862 429.551 153.529 429.547 154.313V160.565H427.233V154.671C427.233 154.015 427.063 153.501 426.722 153.131C426.385 152.76 425.919 152.575 425.322 152.575C424.917 152.575 424.557 152.664 424.242 152.843C423.931 153.018 423.686 153.271 423.507 153.604C423.332 153.936 423.245 154.339 423.245 154.812ZM439.659 153.342L437.55 153.572C437.49 153.359 437.386 153.158 437.237 152.971C437.092 152.783 436.896 152.632 436.649 152.517C436.402 152.402 436.099 152.345 435.741 152.345C435.26 152.345 434.855 152.449 434.527 152.658C434.203 152.867 434.043 153.137 434.047 153.47C434.043 153.755 434.147 153.987 434.36 154.166C434.578 154.345 434.936 154.492 435.434 154.607L437.109 154.965C438.038 155.166 438.728 155.483 439.18 155.918C439.636 156.352 439.866 156.921 439.87 157.624C439.866 158.242 439.685 158.788 439.327 159.261C438.973 159.729 438.481 160.096 437.85 160.36C437.22 160.624 436.495 160.756 435.677 160.756C434.475 160.756 433.508 160.505 432.775 160.002C432.042 159.495 431.605 158.79 431.465 157.886L433.721 157.669C433.823 158.112 434.041 158.447 434.373 158.673C434.706 158.899 435.138 159.011 435.671 159.011C436.22 159.011 436.662 158.899 436.994 158.673C437.331 158.447 437.499 158.168 437.499 157.835C437.499 157.554 437.39 157.322 437.173 157.139C436.96 156.955 436.627 156.815 436.176 156.717L434.501 156.365C433.559 156.169 432.863 155.839 432.411 155.374C431.959 154.906 431.735 154.313 431.74 153.597C431.735 152.992 431.899 152.468 432.232 152.025C432.568 151.577 433.035 151.232 433.632 150.989C434.233 150.742 434.925 150.619 435.709 150.619C436.86 150.619 437.765 150.864 438.426 151.354C439.09 151.844 439.502 152.506 439.659 153.342ZM446.681 150.747V152.536H441.037V150.747H446.681ZM442.43 148.394H444.744V157.612C444.744 157.923 444.791 158.161 444.885 158.327C444.983 158.489 445.111 158.6 445.268 158.66C445.426 158.72 445.601 158.749 445.793 158.749C445.937 158.749 446.07 158.739 446.189 158.717C446.312 158.696 446.406 158.677 446.47 158.66L446.86 160.469C446.736 160.511 446.56 160.558 446.329 160.609C446.104 160.661 445.827 160.69 445.499 160.699C444.919 160.716 444.397 160.629 443.932 160.437C443.468 160.241 443.099 159.938 442.827 159.529C442.558 159.12 442.426 158.609 442.43 157.995V148.394ZM448.616 160.565V150.747H450.86V152.383H450.962C451.141 151.816 451.448 151.379 451.883 151.073C452.321 150.761 452.822 150.606 453.385 150.606C453.513 150.606 453.655 150.612 453.813 150.625C453.975 150.634 454.109 150.649 454.216 150.67V152.798C454.118 152.764 453.962 152.734 453.749 152.709C453.54 152.679 453.338 152.664 453.142 152.664C452.72 152.664 452.341 152.756 452.004 152.939C451.672 153.118 451.41 153.367 451.218 153.687C451.026 154.006 450.93 154.375 450.93 154.793V160.565H448.616ZM462.011 156.435V150.747H464.325V160.565H462.081V158.82H461.979C461.757 159.369 461.393 159.819 460.886 160.168C460.383 160.518 459.763 160.693 459.026 160.693C458.382 160.693 457.813 160.55 457.319 160.264C456.829 159.974 456.445 159.555 456.168 159.005C455.891 158.451 455.753 157.782 455.753 156.998V150.747H458.067V156.64C458.067 157.262 458.237 157.756 458.578 158.123C458.919 158.489 459.367 158.673 459.921 158.673C460.261 158.673 460.592 158.59 460.911 158.423C461.231 158.257 461.493 158.01 461.698 157.682C461.906 157.349 462.011 156.934 462.011 156.435ZM470.987 160.756C470.007 160.756 469.165 160.541 468.462 160.111C467.763 159.68 467.224 159.086 466.845 158.327C466.47 157.565 466.282 156.687 466.282 155.694C466.282 154.697 466.474 153.817 466.858 153.054C467.241 152.287 467.782 151.69 468.481 151.264C469.184 150.834 470.015 150.619 470.974 150.619C471.771 150.619 472.476 150.766 473.09 151.06C473.708 151.349 474.2 151.761 474.566 152.293C474.933 152.822 475.142 153.44 475.193 154.147H472.981C472.892 153.674 472.679 153.28 472.342 152.965C472.01 152.645 471.564 152.485 471.006 152.485C470.533 152.485 470.117 152.613 469.76 152.869C469.402 153.12 469.122 153.482 468.922 153.955C468.726 154.428 468.628 154.995 468.628 155.656C468.628 156.325 468.726 156.9 468.922 157.381C469.118 157.859 469.393 158.227 469.747 158.487C470.105 158.743 470.524 158.871 471.006 158.871C471.347 158.871 471.652 158.807 471.92 158.679C472.193 158.547 472.421 158.357 472.604 158.11C472.787 157.863 472.913 157.563 472.981 157.209H475.193C475.137 157.903 474.933 158.519 474.579 159.056C474.225 159.589 473.744 160.006 473.135 160.309C472.525 160.607 471.809 160.756 470.987 160.756ZM481.995 150.747V152.536H476.351V150.747H481.995ZM477.745 148.394H480.059V157.612C480.059 157.923 480.106 158.161 480.199 158.327C480.297 158.489 480.425 158.6 480.583 158.66C480.741 158.72 480.915 158.749 481.107 158.749C481.252 158.749 481.384 158.739 481.503 158.717C481.627 158.696 481.721 158.677 481.785 158.66L482.174 160.469C482.051 160.511 481.874 160.558 481.644 160.609C481.418 160.661 481.141 160.69 480.813 160.699C480.233 160.716 479.711 160.629 479.247 160.437C478.782 160.241 478.414 159.938 478.141 159.529C477.873 159.12 477.741 158.609 477.745 157.995V148.394ZM488.108 160.756C487.149 160.756 486.318 160.546 485.615 160.124C484.912 159.702 484.366 159.112 483.979 158.353C483.595 157.595 483.403 156.708 483.403 155.694C483.403 154.68 483.595 153.791 483.979 153.028C484.366 152.266 484.912 151.673 485.615 151.251C486.318 150.83 487.149 150.619 488.108 150.619C489.067 150.619 489.898 150.83 490.601 151.251C491.304 151.673 491.847 152.266 492.231 153.028C492.619 153.791 492.812 154.68 492.812 155.694C492.812 156.708 492.619 157.595 492.231 158.353C491.847 159.112 491.304 159.702 490.601 160.124C489.898 160.546 489.067 160.756 488.108 160.756ZM488.121 158.903C488.641 158.903 489.075 158.76 489.425 158.474C489.774 158.185 490.034 157.797 490.204 157.311C490.379 156.825 490.467 156.284 490.467 155.688C490.467 155.087 490.379 154.543 490.204 154.058C490.034 153.568 489.774 153.178 489.425 152.888C489.075 152.598 488.641 152.453 488.121 152.453C487.588 152.453 487.145 152.598 486.791 152.888C486.442 153.178 486.18 153.568 486.005 154.058C485.834 154.543 485.749 155.087 485.749 155.688C485.749 156.284 485.834 156.825 486.005 157.311C486.18 157.797 486.442 158.185 486.791 158.474C487.145 158.76 487.588 158.903 488.121 158.903ZM494.776 160.565V150.747H497.02V152.383H497.122C497.301 151.816 497.608 151.379 498.043 151.073C498.482 150.761 498.982 150.606 499.545 150.606C499.673 150.606 499.815 150.612 499.973 150.625C500.135 150.634 500.269 150.649 500.376 150.67V152.798C500.278 152.764 500.122 152.734 499.909 152.709C499.7 152.679 499.498 152.664 499.302 152.664C498.88 152.664 498.501 152.756 498.164 152.939C497.832 153.118 497.57 153.367 497.378 153.687C497.186 154.006 497.09 154.375 497.09 154.793V160.565H494.776ZM509.673 153.342L507.564 153.572C507.504 153.359 507.4 153.158 507.25 152.971C507.106 152.783 506.91 152.632 506.662 152.517C506.415 152.402 506.113 152.345 505.755 152.345C505.273 152.345 504.868 152.449 504.54 152.658C504.216 152.867 504.057 153.137 504.061 153.47C504.057 153.755 504.161 153.987 504.374 154.166C504.591 154.345 504.949 154.492 505.448 154.607L507.123 154.965C508.052 155.166 508.742 155.483 509.194 155.918C509.65 156.352 509.88 156.921 509.884 157.624C509.88 158.242 509.699 158.788 509.341 159.261C508.987 159.729 508.495 160.096 507.864 160.36C507.233 160.624 506.509 160.756 505.691 160.756C504.489 160.756 503.522 160.505 502.789 160.002C502.056 159.495 501.619 158.79 501.478 157.886L503.735 157.669C503.837 158.112 504.054 158.447 504.387 158.673C504.719 158.899 505.152 159.011 505.684 159.011C506.234 159.011 506.675 158.899 507.008 158.673C507.344 158.447 507.513 158.168 507.513 157.835C507.513 157.554 507.404 157.322 507.187 157.139C506.973 156.955 506.641 156.815 506.189 156.717L504.515 156.365C503.573 156.169 502.876 155.839 502.424 155.374C501.973 154.906 501.749 154.313 501.753 153.597C501.749 152.992 501.913 152.468 502.245 152.025C502.582 151.577 503.049 151.232 503.645 150.989C504.246 150.742 504.939 150.619 505.723 150.619C506.873 150.619 507.779 150.864 508.439 151.354C509.104 151.844 509.515 152.506 509.673 153.342Z" fill="#D9ECFF"/>
<path d="M416.28 109.511C416.485 109.511 416.676 109.305 416.852 108.895C417.057 108.484 417.16 107.809 417.16 106.871V88.9187L412.76 89.7987V84.4307C413.963 84.4307 415.253 84.3427 416.632 84.1667C418.04 83.9614 419.389 83.7267 420.68 83.4627C421.971 83.1694 423.056 82.9054 423.936 82.6707V106.871C423.936 107.809 424.039 108.484 424.244 108.895C424.449 109.305 424.655 109.511 424.86 109.511H416.28ZM440.92 109.951C437.019 109.951 434.1 108.792 432.164 106.475C430.228 104.128 429.26 100.696 429.26 96.1787C429.26 91.7787 430.243 88.4347 432.208 86.1467C434.173 83.8294 437.077 82.6707 440.92 82.6707H441.404C445.188 82.6707 448.033 83.8147 449.94 86.1027C451.876 88.3907 452.844 91.7494 452.844 96.1787C452.844 100.696 451.876 104.128 449.94 106.475C448.033 108.792 445.188 109.951 441.404 109.951H440.92ZM440.92 105.067H441.404C442.401 105.067 443.252 104.817 443.956 104.319C444.66 103.791 445.203 102.881 445.584 101.591C445.965 100.3 446.156 98.4961 446.156 96.1787C446.156 93.9201 445.965 92.1747 445.584 90.9427C445.203 89.6814 444.66 88.8014 443.956 88.3027C443.252 87.7747 442.401 87.5107 441.404 87.5107H440.92C439.923 87.5107 439.043 87.7601 438.28 88.2587C437.547 88.7574 436.975 89.6374 436.564 90.8987C436.153 92.1307 435.948 93.8907 435.948 96.1787C435.948 98.5254 436.153 100.344 436.564 101.635C436.975 102.925 437.547 103.82 438.28 104.319C439.043 104.817 439.923 105.067 440.92 105.067ZM456.813 109.511C457.019 109.511 457.224 109.305 457.429 108.895C457.635 108.484 457.737 107.809 457.737 106.871V85.7507C457.737 84.8121 457.635 84.1521 457.429 83.7707C457.224 83.3601 457.019 83.1401 456.813 83.1107H465.437C465.232 83.1107 465.027 83.3161 464.821 83.7267C464.616 84.1374 464.513 84.8267 464.513 85.7947V92.5267C464.513 93.1721 464.601 93.5534 464.777 93.6707C464.953 93.7881 465.467 93.8467 466.317 93.8467H466.757C467.608 93.8467 468.547 93.5534 469.573 92.9667C470.629 92.3801 471.583 91.5001 472.433 90.3267C473.284 89.1241 473.871 87.6134 474.193 85.7947C474.369 84.8267 474.384 84.1374 474.237 83.7267C474.12 83.3161 473.959 83.1107 473.753 83.1107H484.973C484.68 83.1107 484.24 83.3161 483.653 83.7267C483.067 84.1374 482.465 84.8267 481.849 85.7947C481.087 86.9974 480.412 88.0094 479.825 88.8307C479.239 89.6227 478.681 90.3121 478.153 90.8987C477.655 91.4854 477.097 92.0721 476.481 92.6587C475.689 93.3921 474.956 93.9787 474.281 94.4187C473.636 94.8294 473.064 95.1227 472.565 95.2987V95.4307C473.269 95.5774 474.047 95.8414 474.897 96.2227C475.748 96.6041 476.716 97.2347 477.801 98.1147C479.268 99.2881 480.456 100.564 481.365 101.943C482.304 103.292 483.272 104.788 484.269 106.431C484.944 107.516 485.56 108.308 486.117 108.807C486.675 109.276 487.1 109.511 487.393 109.511H476.305C476.628 109.511 476.892 109.32 477.097 108.939C477.303 108.557 477.244 107.941 476.921 107.091C476.452 105.771 475.88 104.597 475.205 103.571C474.531 102.515 473.768 101.635 472.917 100.931C472.067 100.197 471.128 99.6547 470.101 99.3027C469.075 98.9214 467.975 98.7307 466.801 98.7307H466.317C465.408 98.7307 464.88 98.8041 464.733 98.9507C464.587 99.0681 464.513 99.4787 464.513 100.183V106.871C464.513 107.809 464.616 108.484 464.821 108.895C465.027 109.305 465.232 109.511 465.437 109.511H456.813ZM493.998 103.791V88.8307H498.398V103.791H493.998ZM488.718 98.5107V94.1107H503.678V98.5107H488.718Z" fill="#D9ECFF"/>
<path d="M251.75 151.891H249.36C249.292 151.499 249.166 151.151 248.983 150.849C248.799 150.542 248.571 150.282 248.299 150.069C248.026 149.856 247.715 149.696 247.365 149.59C247.02 149.479 246.647 149.423 246.247 149.423C245.535 149.423 244.905 149.602 244.355 149.96C243.805 150.314 243.375 150.834 243.064 151.52C242.753 152.202 242.597 153.035 242.597 154.019C242.597 155.021 242.753 155.864 243.064 156.55C243.379 157.232 243.809 157.748 244.355 158.097C244.905 158.443 245.533 158.615 246.24 158.615C246.633 158.615 246.999 158.564 247.34 158.462C247.685 158.355 247.994 158.2 248.267 157.995C248.544 157.791 248.776 157.539 248.963 157.241C249.155 156.943 249.287 156.602 249.36 156.218L251.75 156.231C251.661 156.853 251.467 157.437 251.169 157.982C250.875 158.528 250.489 159.009 250.012 159.427C249.535 159.84 248.976 160.164 248.337 160.399C247.698 160.629 246.988 160.744 246.209 160.744C245.058 160.744 244.031 160.477 243.128 159.945C242.224 159.412 241.513 158.643 240.993 157.637C240.473 156.631 240.213 155.425 240.213 154.019C240.213 152.609 240.475 151.403 240.999 150.401C241.523 149.396 242.237 148.626 243.14 148.094C244.044 147.561 245.066 147.295 246.209 147.295C246.937 147.295 247.615 147.397 248.241 147.602C248.868 147.806 249.426 148.107 249.916 148.503C250.406 148.895 250.809 149.376 251.124 149.948C251.444 150.514 251.652 151.162 251.75 151.891ZM258.103 160.756C257.144 160.756 256.313 160.546 255.61 160.124C254.907 159.702 254.361 159.112 253.973 158.353C253.59 157.595 253.398 156.708 253.398 155.694C253.398 154.68 253.59 153.791 253.973 153.028C254.361 152.266 254.907 151.673 255.61 151.251C256.313 150.83 257.144 150.619 258.103 150.619C259.061 150.619 259.892 150.83 260.595 151.251C261.299 151.673 261.842 152.266 262.225 153.028C262.613 153.791 262.807 154.68 262.807 155.694C262.807 156.708 262.613 157.595 262.225 158.353C261.842 159.112 261.299 159.702 260.595 160.124C259.892 160.546 259.061 160.756 258.103 160.756ZM258.115 158.903C258.635 158.903 259.07 158.76 259.419 158.474C259.769 158.185 260.029 157.797 260.199 157.311C260.374 156.825 260.461 156.284 260.461 155.688C260.461 155.087 260.374 154.543 260.199 154.058C260.029 153.568 259.769 153.178 259.419 152.888C259.07 152.598 258.635 152.453 258.115 152.453C257.583 152.453 257.139 152.598 256.786 152.888C256.436 153.178 256.174 153.568 256 154.058C255.829 154.543 255.744 155.087 255.744 155.688C255.744 156.284 255.829 156.825 256 157.311C256.174 157.797 256.436 158.185 256.786 158.474C257.139 158.76 257.583 158.903 258.115 158.903ZM271.029 156.435V150.747H273.343V160.565H271.099V158.82H270.997C270.775 159.369 270.411 159.819 269.904 160.168C269.401 160.518 268.781 160.693 268.044 160.693C267.4 160.693 266.831 160.55 266.337 160.264C265.847 159.974 265.463 159.555 265.187 159.005C264.91 158.451 264.771 157.782 264.771 156.998V150.747H267.085V156.64C267.085 157.262 267.255 157.756 267.596 158.123C267.937 158.489 268.385 158.673 268.939 158.673C269.28 158.673 269.61 158.59 269.929 158.423C270.249 158.257 270.511 158.01 270.716 157.682C270.924 157.349 271.029 156.934 271.029 156.435ZM275.722 160.565V150.747H277.966V152.383H278.068C278.247 151.816 278.554 151.379 278.989 151.073C279.427 150.761 279.928 150.606 280.491 150.606C280.619 150.606 280.761 150.612 280.919 150.625C281.081 150.634 281.215 150.649 281.322 150.67V152.798C281.224 152.764 281.068 152.734 280.855 152.709C280.646 152.679 280.444 152.664 280.248 152.664C279.826 152.664 279.447 152.756 279.11 152.939C278.778 153.118 278.516 153.367 278.324 153.687C278.132 154.006 278.036 154.375 278.036 154.793V160.565H275.722ZM290.619 153.342L288.509 153.572C288.45 153.359 288.345 153.158 288.196 152.971C288.051 152.783 287.855 152.632 287.608 152.517C287.361 152.402 287.058 152.345 286.701 152.345C286.219 152.345 285.814 152.449 285.486 152.658C285.162 152.867 285.002 153.137 285.007 153.47C285.002 153.755 285.107 153.987 285.32 154.166C285.537 154.345 285.895 154.492 286.394 154.607L288.068 154.965C288.997 155.166 289.688 155.483 290.139 155.918C290.595 156.352 290.826 156.921 290.83 157.624C290.826 158.242 290.644 158.788 290.286 159.261C289.933 159.729 289.441 160.096 288.81 160.36C288.179 160.624 287.455 160.756 286.637 160.756C285.435 160.756 284.468 160.505 283.735 160.002C283.002 159.495 282.565 158.79 282.424 157.886L284.681 157.669C284.783 158.112 285 158.447 285.333 158.673C285.665 158.899 286.098 159.011 286.63 159.011C287.18 159.011 287.621 158.899 287.953 158.673C288.29 158.447 288.458 158.168 288.458 157.835C288.458 157.554 288.35 157.322 288.132 157.139C287.919 156.955 287.587 156.815 287.135 156.717L285.46 156.365C284.519 156.169 283.822 155.839 283.37 155.374C282.919 154.906 282.695 154.313 282.699 153.597C282.695 152.992 282.859 152.468 283.191 152.025C283.528 151.577 283.995 151.232 284.591 150.989C285.192 150.742 285.884 150.619 286.669 150.619C287.819 150.619 288.725 150.864 289.385 151.354C290.05 151.844 290.461 152.506 290.619 153.342ZM297.084 160.756C296.1 160.756 295.25 160.552 294.534 160.143C293.822 159.729 293.275 159.146 292.891 158.391C292.508 157.633 292.316 156.74 292.316 155.713C292.316 154.703 292.508 153.817 292.891 153.054C293.279 152.287 293.82 151.69 294.515 151.264C295.209 150.834 296.025 150.619 296.963 150.619C297.568 150.619 298.139 150.717 298.676 150.913C299.217 151.104 299.695 151.403 300.108 151.808C300.525 152.212 300.854 152.728 301.092 153.354C301.331 153.977 301.45 154.718 301.45 155.579V156.288H293.403V154.729H299.232C299.228 154.286 299.132 153.891 298.945 153.546C298.757 153.197 298.495 152.922 298.158 152.722C297.826 152.521 297.438 152.421 296.995 152.421C296.522 152.421 296.106 152.536 295.748 152.766C295.391 152.992 295.111 153.291 294.911 153.661C294.715 154.028 294.615 154.43 294.611 154.869V156.231C294.611 156.802 294.715 157.292 294.924 157.701C295.133 158.106 295.425 158.417 295.8 158.634C296.175 158.847 296.614 158.954 297.116 158.954C297.453 158.954 297.758 158.907 298.03 158.813C298.303 158.715 298.54 158.573 298.74 158.385C298.94 158.198 299.092 157.965 299.194 157.688L301.354 157.931C301.218 158.502 300.958 159.001 300.574 159.427C300.195 159.849 299.709 160.177 299.117 160.411C298.525 160.641 297.847 160.756 297.084 160.756ZM311.168 153.342L309.058 153.572C308.999 153.359 308.894 153.158 308.745 152.971C308.6 152.783 308.404 152.632 308.157 152.517C307.91 152.402 307.607 152.345 307.249 152.345C306.768 152.345 306.363 152.449 306.035 152.658C305.711 152.867 305.551 153.137 305.555 153.47C305.551 153.755 305.656 153.987 305.869 154.166C306.086 154.345 306.444 154.492 306.943 154.607L308.617 154.965C309.546 155.166 310.237 155.483 310.688 155.918C311.144 156.352 311.374 156.921 311.379 157.624C311.374 158.242 311.193 158.788 310.835 159.261C310.482 159.729 309.989 160.096 309.359 160.36C308.728 160.624 308.004 160.756 307.185 160.756C305.984 160.756 305.016 160.505 304.283 160.002C303.551 159.495 303.114 158.79 302.973 157.886L305.229 157.669C305.332 158.112 305.549 158.447 305.881 158.673C306.214 158.899 306.646 159.011 307.179 159.011C307.729 159.011 308.17 158.899 308.502 158.673C308.839 158.447 309.007 158.168 309.007 157.835C309.007 157.554 308.899 157.322 308.681 157.139C308.468 156.955 308.136 156.815 307.684 156.717L306.009 156.365C305.068 156.169 304.371 155.839 303.919 155.374C303.467 154.906 303.244 154.313 303.248 153.597C303.244 152.992 303.408 152.468 303.74 152.025C304.077 151.577 304.543 151.232 305.14 150.989C305.741 150.742 306.433 150.619 307.217 150.619C308.368 150.619 309.274 150.864 309.934 151.354C310.599 151.844 311.01 152.506 311.168 153.342Z" fill="#D9ECFF"/>
<path d="M230.28 109.511C230.485 109.511 230.676 109.305 230.852 108.895C231.057 108.484 231.16 107.809 231.16 106.871V88.9187L226.76 89.7987V84.4307C227.963 84.4307 229.253 84.3427 230.632 84.1667C232.04 83.9614 233.389 83.7267 234.68 83.4627C235.971 83.1694 237.056 82.9054 237.936 82.6707V106.871C237.936 107.809 238.039 108.484 238.244 108.895C238.449 109.305 238.655 109.511 238.86 109.511H230.28ZM253.908 109.951C251.385 109.951 249.229 109.76 247.44 109.379C245.651 108.968 244.404 108.572 243.7 108.191L244.58 103.703V102.383C244.639 102.383 245.005 102.603 245.68 103.043C246.384 103.483 247.367 103.923 248.628 104.363C249.889 104.773 251.371 104.979 253.072 104.979C254.304 104.979 255.375 104.832 256.284 104.539C257.193 104.216 257.927 103.761 258.484 103.175C259.071 102.588 259.496 101.869 259.76 101.019C260.053 100.168 260.2 99.1854 260.2 98.0707L260.112 98.0267C259.995 98.2027 259.789 98.4374 259.496 98.7307C259.232 99.0241 258.851 99.3174 258.352 99.6107C257.853 99.8747 257.193 100.109 256.372 100.315C255.58 100.491 254.612 100.579 253.468 100.579C251.033 100.579 249.053 100.212 247.528 99.4787C246.032 98.7161 244.947 97.6601 244.272 96.3107C243.597 94.9614 243.26 93.4214 243.26 91.6907C243.26 90.6347 243.421 89.5787 243.744 88.5227C244.067 87.4667 244.624 86.5134 245.416 85.6627C246.208 84.7827 247.293 84.0787 248.672 83.5507C250.051 83.0227 251.796 82.7587 253.908 82.7587H254.832C258.939 82.7587 261.96 83.8441 263.896 86.0147C265.861 88.1561 266.844 91.5294 266.844 96.1347C266.844 99.4494 266.316 102.119 265.26 104.143C264.233 106.167 262.752 107.648 260.816 108.587C258.88 109.496 256.577 109.951 253.908 109.951ZM254.92 95.7387C255.859 95.7387 256.68 95.6214 257.384 95.3867C258.088 95.1521 258.631 94.7414 259.012 94.1547C259.423 93.5681 259.628 92.7761 259.628 91.7787C259.628 90.7814 259.467 89.9894 259.144 89.4027C258.821 88.7867 258.293 88.3467 257.56 88.0827C256.856 87.7894 255.903 87.6427 254.7 87.6427C253.116 87.6427 251.928 87.9507 251.136 88.5667C250.344 89.1827 249.948 90.3121 249.948 91.9547C249.948 92.6881 250.095 93.3481 250.388 93.9347C250.711 94.4921 251.239 94.9321 251.972 95.2547C252.705 95.5774 253.688 95.7387 254.92 95.7387ZM270.813 109.511C271.019 109.511 271.224 109.305 271.429 108.895C271.635 108.484 271.737 107.809 271.737 106.871V85.7507C271.737 84.8121 271.635 84.1521 271.429 83.7707C271.224 83.3601 271.019 83.1401 270.813 83.1107H279.437C279.232 83.1107 279.027 83.3161 278.821 83.7267C278.616 84.1374 278.513 84.8267 278.513 85.7947V92.5267C278.513 93.1721 278.601 93.5534 278.777 93.6707C278.953 93.7881 279.467 93.8467 280.317 93.8467H280.757C281.608 93.8467 282.547 93.5534 283.573 92.9667C284.629 92.3801 285.583 91.5001 286.433 90.3267C287.284 89.1241 287.871 87.6134 288.193 85.7947C288.369 84.8267 288.384 84.1374 288.237 83.7267C288.12 83.3161 287.959 83.1107 287.753 83.1107H298.973C298.68 83.1107 298.24 83.3161 297.653 83.7267C297.067 84.1374 296.465 84.8267 295.849 85.7947C295.087 86.9974 294.412 88.0094 293.825 88.8307C293.239 89.6227 292.681 90.3121 292.153 90.8987C291.655 91.4854 291.097 92.0721 290.481 92.6587C289.689 93.3921 288.956 93.9787 288.281 94.4187C287.636 94.8294 287.064 95.1227 286.565 95.2987V95.4307C287.269 95.5774 288.047 95.8414 288.897 96.2227C289.748 96.6041 290.716 97.2347 291.801 98.1147C293.268 99.2881 294.456 100.564 295.365 101.943C296.304 103.292 297.272 104.788 298.269 106.431C298.944 107.516 299.56 108.308 300.117 108.807C300.675 109.276 301.1 109.511 301.393 109.511H290.305C290.628 109.511 290.892 109.32 291.097 108.939C291.303 108.557 291.244 107.941 290.921 107.091C290.452 105.771 289.88 104.597 289.205 103.571C288.531 102.515 287.768 101.635 286.917 100.931C286.067 100.197 285.128 99.6547 284.101 99.3027C283.075 98.9214 281.975 98.7307 280.801 98.7307H280.317C279.408 98.7307 278.88 98.8041 278.733 98.9507C278.587 99.0681 278.513 99.4787 278.513 100.183V106.871C278.513 107.809 278.616 108.484 278.821 108.895C279.027 109.305 279.232 109.511 279.437 109.511H270.813ZM307.998 103.791V88.8307H312.398V103.791H307.998ZM302.718 98.5107V94.1107H317.678V98.5107H302.718Z" fill="#D9ECFF"/>
<path d="M56.0791 151.073C56.0194 150.514 55.768 150.08 55.3248 149.769C54.8859 149.457 54.3149 149.302 53.6118 149.302C53.1175 149.302 52.6934 149.376 52.3398 149.526C51.9861 149.675 51.7155 149.877 51.528 150.133C51.3405 150.389 51.2446 150.68 51.2403 151.009C51.2403 151.281 51.3021 151.518 51.4257 151.718C51.5535 151.918 51.7261 152.089 51.9434 152.229C52.1608 152.366 52.4015 152.481 52.6657 152.575C52.93 152.668 53.1963 152.747 53.4648 152.811L54.692 153.118C55.1863 153.233 55.6615 153.389 56.1175 153.585C56.5777 153.781 56.9889 154.028 57.3511 154.326C57.7176 154.624 58.0074 154.984 58.2204 155.406C58.4335 155.828 58.54 156.323 58.54 156.889C58.54 157.656 58.344 158.332 57.952 158.916C57.5599 159.495 56.9932 159.949 56.2517 160.277C55.5145 160.601 54.6217 160.763 53.5734 160.763C52.555 160.763 51.6707 160.605 50.9207 160.29C50.175 159.974 49.5912 159.514 49.1693 158.909C48.7517 158.304 48.5258 157.567 48.4917 156.698H50.8248C50.8589 157.153 50.9996 157.533 51.2467 157.835C51.4939 158.138 51.8156 158.364 52.2119 158.513C52.6125 158.662 53.0599 158.737 53.5542 158.737C54.0699 158.737 54.5216 158.66 54.9094 158.506C55.3014 158.349 55.6082 158.131 55.8298 157.854C56.0514 157.573 56.1643 157.245 56.1686 156.87C56.1643 156.529 56.0642 156.248 55.8682 156.026C55.6721 155.8 55.3973 155.613 55.0436 155.464C54.6942 155.31 54.2851 155.174 53.8163 155.055L52.327 154.671C51.2488 154.394 50.3966 153.974 49.7702 153.412C49.148 152.845 48.8369 152.093 48.8369 151.156C48.8369 150.384 49.0457 149.709 49.4633 149.129C49.8852 148.55 50.4584 148.1 51.1828 147.781C51.9072 147.457 52.7275 147.295 53.6437 147.295C54.5727 147.295 55.3866 147.457 56.0855 147.781C56.7886 148.1 57.3405 148.546 57.741 149.117C58.1416 149.683 58.3483 150.335 58.3611 151.073H56.0791ZM65.4546 150.747V152.536H59.8105V150.747H65.4546ZM61.2039 148.394H63.5178V157.612C63.5178 157.923 63.5647 158.161 63.6585 158.327C63.7565 158.489 63.8843 158.6 64.042 158.66C64.1997 158.72 64.3744 158.749 64.5661 158.749C64.711 158.749 64.8431 158.739 64.9624 158.717C65.086 158.696 65.1798 158.677 65.2437 158.66L65.6336 160.469C65.51 160.511 65.3332 160.558 65.1031 160.609C64.8772 160.661 64.6002 160.69 64.2721 160.699C63.6926 160.716 63.1705 160.629 62.7061 160.437C62.2416 160.241 61.873 159.938 61.6002 159.529C61.3318 159.12 61.1997 158.609 61.2039 157.995V148.394ZM73.6476 156.435V150.747H75.9616V160.565H73.718V158.82H73.6157C73.3941 159.369 73.0297 159.819 72.5226 160.168C72.0198 160.518 71.3998 160.693 70.6626 160.693C70.0191 160.693 69.4502 160.55 68.9559 160.264C68.4658 159.974 68.0823 159.555 67.8053 159.005C67.5283 158.451 67.3898 157.782 67.3898 156.998V150.747H69.7037V156.64C69.7037 157.262 69.8742 157.756 70.2151 158.123C70.556 158.489 71.0035 158.673 71.5574 158.673C71.8983 158.673 72.2286 158.59 72.5482 158.423C72.8678 158.257 73.1299 158.01 73.3344 157.682C73.5432 157.349 73.6476 156.934 73.6476 156.435ZM81.9845 160.737C81.2132 160.737 80.5228 160.539 79.9134 160.143C79.3041 159.747 78.8225 159.171 78.4688 158.417C78.1151 157.663 77.9383 156.747 77.9383 155.668C77.9383 154.577 78.1173 153.657 78.4752 152.907C78.8374 152.153 79.3254 151.584 79.939 151.2C80.5526 150.813 81.2366 150.619 81.9909 150.619C82.5661 150.619 83.0392 150.717 83.4099 150.913C83.7806 151.104 84.0747 151.337 84.292 151.609C84.5093 151.878 84.6776 152.131 84.797 152.37H84.8928V147.474H87.2132V160.565H84.9376V159.018H84.797C84.6776 159.256 84.5051 159.51 84.2792 159.778C84.0534 160.043 83.7551 160.269 83.3843 160.456C83.0136 160.644 82.547 160.737 81.9845 160.737ZM82.6301 158.839C83.1201 158.839 83.5377 158.707 83.8829 158.443C84.2281 158.174 84.4901 157.801 84.6691 157.324C84.8481 156.847 84.9376 156.291 84.9376 155.656C84.9376 155.021 84.8481 154.469 84.6691 154C84.4944 153.531 84.2345 153.167 83.8893 152.907C83.5484 152.647 83.1286 152.517 82.6301 152.517C82.1144 152.517 81.684 152.651 81.3389 152.92C80.9937 153.188 80.7338 153.559 80.559 154.032C80.3843 154.505 80.297 155.046 80.297 155.656C80.297 156.269 80.3843 156.817 80.559 157.298C80.738 157.776 81.0001 158.153 81.3453 158.43C81.6947 158.702 82.123 158.839 82.6301 158.839ZM94.0255 160.756C93.0411 160.756 92.191 160.552 91.4751 160.143C90.7634 159.729 90.2158 159.146 89.8323 158.391C89.4488 157.633 89.257 156.74 89.257 155.713C89.257 154.703 89.4488 153.817 89.8323 153.054C90.2201 152.287 90.7613 151.69 91.4559 151.264C92.1505 150.834 92.9665 150.619 93.904 150.619C94.5091 150.619 95.0802 150.717 95.6171 150.913C96.1583 151.104 96.6356 151.403 97.0489 151.808C97.4665 152.212 97.7947 152.728 98.0333 153.354C98.2719 153.977 98.3912 154.718 98.3912 155.579V156.288H90.3437V154.729H96.1732C96.1689 154.286 96.0731 153.891 95.8856 153.546C95.6981 153.197 95.436 152.922 95.0993 152.722C94.767 152.521 94.3792 152.421 93.936 152.421C93.463 152.421 93.0475 152.536 92.6895 152.766C92.3316 152.992 92.0525 153.291 91.8522 153.661C91.6562 154.028 91.556 154.43 91.5518 154.869V156.231C91.5518 156.802 91.6562 157.292 91.865 157.701C92.0738 158.106 92.3657 158.417 92.7407 158.634C93.1157 158.847 93.5546 158.954 94.0574 158.954C94.3941 158.954 94.6988 158.907 94.9715 158.813C95.2442 158.715 95.4807 158.573 95.681 158.385C95.8813 158.198 96.0326 157.965 96.1349 157.688L98.2954 157.931C98.159 158.502 97.8991 159.001 97.5155 159.427C97.1363 159.849 96.6505 160.177 96.0581 160.411C95.4658 160.641 94.7883 160.756 94.0255 160.756ZM102.663 154.812V160.565H100.349V150.747H102.56V152.415H102.676C102.901 151.865 103.261 151.428 103.756 151.104C104.254 150.781 104.87 150.619 105.603 150.619C106.281 150.619 106.871 150.764 107.374 151.053C107.881 151.343 108.273 151.763 108.55 152.313C108.831 152.862 108.97 153.529 108.965 154.313V160.565H106.651V154.671C106.651 154.015 106.481 153.501 106.14 153.131C105.803 152.76 105.337 152.575 104.74 152.575C104.335 152.575 103.975 152.664 103.66 152.843C103.349 153.018 103.104 153.271 102.925 153.604C102.75 153.936 102.663 154.339 102.663 154.812ZM116.22 150.747V152.536H110.576V150.747H116.22ZM111.97 148.394H114.283V157.612C114.283 157.923 114.33 158.161 114.424 158.327C114.522 158.489 114.65 158.6 114.808 158.66C114.965 158.72 115.14 158.749 115.332 158.749C115.477 158.749 115.609 158.739 115.728 158.717C115.852 158.696 115.945 158.677 116.009 158.66L116.399 160.469C116.276 160.511 116.099 160.558 115.869 160.609C115.643 160.661 115.366 160.69 115.038 160.699C114.458 160.716 113.936 160.629 113.472 160.437C113.007 160.241 112.639 159.938 112.366 159.529C112.097 159.12 111.965 158.609 111.97 157.995V148.394ZM125.775 153.342L123.665 153.572C123.606 153.359 123.501 153.158 123.352 152.971C123.207 152.783 123.011 152.632 122.764 152.517C122.517 152.402 122.214 152.345 121.856 152.345C121.375 152.345 120.97 152.449 120.642 152.658C120.318 152.867 120.158 153.137 120.163 153.47C120.158 153.755 120.263 153.987 120.476 154.166C120.693 154.345 121.051 154.492 121.55 154.607L123.224 154.965C124.153 155.166 124.844 155.483 125.295 155.918C125.751 156.352 125.981 156.921 125.986 157.624C125.981 158.242 125.8 158.788 125.442 159.261C125.089 159.729 124.597 160.096 123.966 160.36C123.335 160.624 122.611 160.756 121.793 160.756C120.591 160.756 119.623 160.505 118.891 160.002C118.158 159.495 117.721 158.79 117.58 157.886L119.837 157.669C119.939 158.112 120.156 158.447 120.489 158.673C120.821 158.899 121.253 159.011 121.786 159.011C122.336 159.011 122.777 158.899 123.109 158.673C123.446 158.447 123.614 158.168 123.614 157.835C123.614 157.554 123.506 157.322 123.288 157.139C123.075 156.955 122.743 156.815 122.291 156.717L120.616 156.365C119.675 156.169 118.978 155.839 118.526 155.374C118.074 154.906 117.851 154.313 117.855 153.597C117.851 152.992 118.015 152.468 118.347 152.025C118.684 151.577 119.15 151.232 119.747 150.989C120.348 150.742 121.04 150.619 121.824 150.619C122.975 150.619 123.881 150.864 124.541 151.354C125.206 151.844 125.617 152.506 125.775 153.342Z" fill="#D9ECFF"/>
<path d="M58.2521 109.951C55.2601 109.951 52.8108 109.76 50.9041 109.379C48.9975 108.968 47.7215 108.572 47.0761 108.191L48.0001 103.043V101.723C48.4108 102.192 49.0415 102.691 49.8921 103.219C50.7428 103.747 51.7988 104.201 53.0601 104.583C54.3508 104.935 55.8175 105.111 57.4601 105.111C58.6335 105.111 59.5575 104.993 60.2321 104.759C60.9361 104.495 61.4348 104.128 61.7281 103.659C62.0508 103.189 62.2121 102.617 62.2121 101.943C62.2121 100.828 61.7868 100.021 60.9361 99.5227C60.0855 98.9947 58.6188 98.7307 56.5361 98.7307H52.3561V94.1107H56.5361C57.9735 94.1107 58.9855 93.8027 59.5721 93.1867C60.1588 92.5414 60.4521 91.5147 60.4521 90.1067C60.4521 89.5201 60.3641 89.0361 60.1881 88.6547C60.0121 88.2734 59.7335 87.9947 59.3521 87.8187C58.9708 87.6134 58.4721 87.5107 57.8561 87.5107C56.4481 87.5107 55.1135 87.7307 53.8521 88.1707C52.6201 88.6107 51.5348 89.1534 50.5961 89.7987C49.6575 90.4147 48.9241 91.0161 48.3961 91.6027V90.2827L47.5161 85.3107C48.1321 84.7241 49.3201 84.1374 51.0801 83.5507C52.8401 82.9641 55.0695 82.6707 57.7681 82.6707C60.2321 82.6707 62.1388 82.9494 63.4881 83.5067C64.8375 84.0641 65.7761 84.8414 66.3041 85.8387C66.8615 86.8361 67.1401 87.9947 67.1401 89.3147C67.1401 90.8401 66.7735 92.1601 66.0401 93.2747C65.3361 94.3894 64.4121 95.1961 63.2681 95.6947V95.7827C65.0281 96.0761 66.4068 96.7801 67.4041 97.8947C68.4015 99.0094 68.9001 100.461 68.9001 102.251C68.9001 103.717 68.5481 105.037 67.8441 106.211C67.1401 107.384 65.9961 108.308 64.4121 108.983C62.8575 109.628 60.8041 109.951 58.2521 109.951ZM72.8677 109.511C73.073 109.511 73.2784 109.305 73.4837 108.895C73.689 108.484 73.7917 107.809 73.7917 106.871V85.7507C73.7917 84.8121 73.689 84.1521 73.4837 83.7707C73.2784 83.3601 73.073 83.1401 72.8677 83.1107H83.2517C83.0757 83.1401 82.9877 83.3747 82.9877 83.8147C83.017 84.2254 83.2664 84.9001 83.7357 85.8387C83.941 86.2201 84.2344 86.8214 84.6157 87.6427C85.0264 88.4641 85.481 89.4174 85.9797 90.5027C86.5077 91.5881 87.0504 92.7467 87.6077 93.9787C88.1944 95.2107 88.781 96.4427 89.3677 97.6747C89.9544 98.9067 90.497 100.065 90.9957 101.151H91.0397C91.5677 100.065 92.125 98.9214 92.7117 97.7187C93.3277 96.4867 93.929 95.2547 94.5157 94.0227C95.1024 92.7907 95.6597 91.6321 96.1877 90.5467C96.7157 89.4321 97.1704 88.4641 97.5517 87.6427C97.933 86.7921 98.2117 86.1614 98.3877 85.7507C98.7984 84.8121 99.0184 84.1374 99.0477 83.7267C99.077 83.3161 99.0184 83.1107 98.8717 83.1107H109.256C109.05 83.1107 108.845 83.3161 108.64 83.7267C108.434 84.1374 108.332 84.8267 108.332 85.7947V106.871C108.332 107.809 108.434 108.484 108.64 108.895C108.845 109.305 109.05 109.511 109.256 109.511H100.764C100.969 109.511 101.16 109.305 101.336 108.895C101.541 108.484 101.644 107.809 101.644 106.871V92.6147H101.556C101.086 93.4947 100.588 94.4627 100.06 95.5187C99.5317 96.5747 98.989 97.6454 98.4317 98.7307C97.9037 99.8161 97.3904 100.872 96.8917 101.899C96.393 102.925 95.9384 103.864 95.5277 104.715C95.117 105.565 94.7797 106.284 94.5157 106.871C94.105 107.78 93.885 108.44 93.8557 108.851C93.8557 109.261 93.929 109.481 94.0757 109.511H87.9157C88.0624 109.481 88.121 109.261 88.0917 108.851C88.0917 108.44 87.8864 107.78 87.4757 106.871C87.241 106.343 86.9184 105.653 86.5077 104.803C86.1264 103.952 85.6864 103.028 85.1877 102.031C84.7184 101.004 84.2197 99.9481 83.6917 98.8627C83.1637 97.7481 82.6357 96.6627 82.1077 95.6067C81.609 94.5214 81.1397 93.5241 80.6997 92.6147H80.5677V106.871C80.5677 107.809 80.6704 108.484 80.8757 108.895C81.081 109.305 81.2864 109.511 81.4917 109.511H72.8677ZM118.045 103.791V88.8307H122.445V103.791H118.045ZM112.765 98.5107V94.1107H127.725V98.5107H112.765Z" fill="#D9ECFF"/>
<path d="M186.667 118.596L186.667 116.596L182.667 116.596L182.667 118.596L186.667 118.596ZM4.00001 118.596L4.00001 116.596L1.08776e-05 116.596L1.07028e-05 118.596L4.00001 118.596ZM552 118.596L552 116.596L548 116.596L548 118.596L552 118.596ZM550 149.688L548 149.688L550 149.688ZM369.333 118.596L369.333 116.596L365.333 116.596L365.333 118.596L369.333 118.596ZM182.667 121.511L182.667 123.511L186.667 123.511L186.667 121.511L182.667 121.511ZM365.333 121.511L365.333 123.511L369.333 123.511L369.333 121.511L365.333 121.511ZM182.667 118.596L182.667 149.688L186.667 149.688L186.667 118.596L182.667 118.596ZM4.00001 149.688L4.00001 118.596L1.07028e-05 118.596L7.98461e-06 149.688L4.00001 149.688ZM93.3333 239.021C43.9959 239.021 4 199.025 4.00001 149.688L7.98461e-06 149.688C3.47827e-06 201.234 41.7867 243.021 93.3333 243.021L93.3333 239.021ZM182.667 149.688C182.667 199.025 142.671 239.021 93.3333 239.021L93.3333 243.021C144.88 243.021 186.667 201.234 186.667 149.688L182.667 149.688ZM548 118.596L548 149.688L552 149.688L552 118.596L548 118.596ZM369.333 149.688L369.333 118.596L365.333 118.596L365.333 149.688L369.333 149.688ZM458.667 239.021C409.329 239.021 369.333 199.025 369.333 149.688L365.333 149.688C365.333 201.234 407.12 243.021 458.667 243.021L458.667 239.021ZM548 149.688C548 199.025 508.004 239.021 458.667 239.021L458.667 243.021C510.213 243.021 552 201.234 552 149.688L548 149.688ZM186.667 121.511L186.667 93.3333L182.667 93.3333L182.667 121.511L186.667 121.511ZM365.333 93.3333L365.333 121.511L369.333 121.511L369.333 93.3333L365.333 93.3333ZM276 3.99996C325.337 3.99997 365.333 43.9959 365.333 93.3333L369.333 93.3333C369.333 41.7867 327.547 -3.47063e-05 276 -3.92126e-05L276 3.99996ZM186.667 93.3333C186.667 43.9959 226.663 3.99994 276 3.99996L276 -3.92126e-05C224.453 -5.89778e-05 182.667 41.7867 182.667 93.3333L186.667 93.3333Z" fill="white" fill-opacity="0.25"/>
</svg>
