<svg width="1029" height="954" viewBox="0 0 1029 954" fill="none" xmlns="http://www.w3.org/2000/svg">
<path fill-rule="evenodd" clip-rule="evenodd" d="M634.869 55.4517C705.703 61.7024 785.476 8.00411 840.07 53.5424C895.609 99.8685 873.146 186.524 878.452 258.629C884.498 340.783 927.074 434.415 872.651 496.279C817.508 558.963 716.185 554.539 634.869 535.52C568.63 520.027 539.38 449.856 487.274 406.143C424.987 353.888 324.392 337.516 304.818 258.629C283.188 171.463 313.416 60.9175 389.924 13.8196C463.232 -31.3081 549.106 47.8835 634.869 55.4517Z" fill="#D9ECFF" fill-opacity="0.16"/>
<circle cx="53.5" cy="191.5" r="52.5" fill="#F2C94C" stroke="#43328D" stroke-width="2"/>
<circle cx="53.4992" cy="191.5" r="43.1957" stroke="#2A1E17" stroke-width="2"/>
<path d="M28.5714 186.982L19.9138 186.591L20.3136 185.304L27.0349 185.664L21.3146 182.079L21.7077 180.813L28.445 181.084L22.7053 177.6L23.1051 176.312L30.466 180.879L29.9957 182.394L23.7174 182.135L29.0417 185.467L28.5714 186.982Z" fill="black"/>
<path d="M28.2902 173.745C28.5144 173.441 28.7492 173.224 28.9945 173.095C29.2444 172.96 29.478 172.879 29.6955 172.851C29.9129 172.824 30.0875 172.816 30.2191 172.829L30.2595 172.774L29.5384 172.244L30.3052 171.204L35.1427 174.762L34.3759 175.801L33.6549 175.271L33.6145 175.326C33.6654 175.447 33.71 175.616 33.7481 175.832C33.7862 176.047 33.7777 176.294 33.7226 176.572C33.672 176.844 33.5345 177.132 33.3103 177.436C33.0413 177.801 32.7359 178.069 32.3942 178.239C32.0508 178.399 31.6933 178.483 31.3214 178.491C30.9435 178.494 30.5718 178.432 30.2064 178.304C29.8455 178.17 29.5098 177.989 29.1995 177.76C28.8892 177.532 28.6163 177.266 28.3809 176.962C28.15 176.651 27.9832 176.317 27.8804 175.961C27.7715 175.599 27.7457 175.233 27.8031 174.863C27.8588 174.482 28.0212 174.109 28.2902 173.745ZM29.3255 174.154C29.1058 174.452 29.0041 174.762 29.0204 175.083C29.0306 175.4 29.1224 175.702 29.2956 175.989C29.4734 176.27 29.6992 176.511 29.973 176.712C30.2468 176.913 30.5443 177.057 30.8656 177.143C31.1913 177.223 31.5103 177.224 31.8225 177.144C32.1287 177.06 32.3917 176.869 32.6114 176.571C32.8311 176.273 32.9336 175.969 32.9189 175.658C32.9026 175.336 32.8055 175.035 32.6278 174.755C32.4545 174.468 32.231 174.224 31.9572 174.022C31.6834 173.821 31.3836 173.68 31.0579 173.6C30.7366 173.514 30.4229 173.513 30.1168 173.597C29.809 173.671 29.5452 173.857 29.3255 174.154Z" fill="black"/>
<path d="M38.6466 172.23C38.2758 172.528 37.924 172.7 37.5913 172.745C37.2585 172.789 36.952 172.74 36.6717 172.597C36.3926 172.444 36.1463 172.235 35.9329 171.97L33.9409 169.501L33.1199 170.161L32.4654 169.35L33.2864 168.69L32.3474 167.526L33.3539 166.716L34.2929 167.88L35.3877 167L36.0422 167.811L34.9474 168.692L36.9251 171.143C37.2809 171.584 37.703 171.608 38.1915 171.215C38.3151 171.116 38.4228 171.015 38.5145 170.912C38.6062 170.809 38.6521 170.757 38.6521 170.757L39.3137 171.577C39.3137 171.577 39.2496 171.648 39.1214 171.79C38.9991 171.927 38.8409 172.074 38.6466 172.23Z" fill="black"/>
<path d="M43.9544 169.318C43.4942 169.529 43.0562 169.634 42.6403 169.633C42.2212 169.626 41.837 169.54 41.4874 169.376C41.1347 169.205 40.8228 168.978 40.5516 168.695C40.2873 168.409 40.0748 168.091 39.9141 167.741C39.7533 167.391 39.6507 167.023 39.6062 166.636C39.5685 166.246 39.6016 165.865 39.7053 165.494C39.8059 165.116 39.9917 164.769 40.2626 164.454C40.5304 164.132 40.8944 163.866 41.3546 163.655C41.8079 163.448 42.2137 163.345 42.572 163.347C42.9341 163.34 43.2501 163.394 43.5201 163.512C43.7901 163.629 44.0154 163.767 44.196 163.925C44.3767 164.083 44.5089 164.226 44.5925 164.354C44.683 164.479 44.7283 164.541 44.7283 164.541L43.6156 165.05C43.6156 165.05 43.5748 165.007 43.4932 164.919C43.4184 164.829 43.3049 164.736 43.1526 164.639C43.0003 164.543 42.8112 164.484 42.5854 164.463C42.3664 164.438 42.1092 164.494 41.8139 164.629C41.4636 164.789 41.2127 165.012 41.0611 165.297C40.9064 165.576 40.8318 165.884 40.8374 166.222C40.8498 166.557 40.9301 166.886 41.0782 167.208C41.2263 167.531 41.4234 167.806 41.6693 168.034C41.9222 168.259 42.2063 168.407 42.5217 168.479C42.834 168.544 43.1653 168.496 43.5156 168.336C43.8109 168.2 44.0208 168.042 44.1453 167.861C44.2766 167.676 44.3554 167.494 44.3816 167.316C44.4079 167.138 44.4111 166.991 44.3913 166.876C44.3784 166.757 44.3719 166.698 44.3719 166.698L45.4846 166.189C45.4846 166.189 45.5023 166.264 45.5379 166.413C45.5803 166.56 45.6026 166.753 45.6047 166.993C45.6068 167.233 45.5642 167.494 45.4771 167.774C45.3899 168.055 45.2267 168.333 44.9875 168.609C44.7521 168.875 44.4077 169.111 43.9544 169.318Z" fill="black"/>
<path d="M47.7759 167.955L46.3818 159.458L47.6565 159.249L48.2196 162.681L48.2867 162.67C48.3217 162.558 48.3904 162.416 48.4927 162.246C48.5937 162.069 48.7463 161.903 48.9503 161.747C49.1618 161.59 49.4428 161.483 49.7931 161.425C50.2329 161.353 50.6184 161.394 50.9496 161.546C51.2808 161.699 51.5484 161.93 51.7525 162.241C51.9641 162.551 52.1029 162.907 52.1689 163.31L52.7962 167.134L51.5216 167.342L50.9163 163.652C50.8576 163.295 50.7074 163.009 50.4658 162.796C50.2316 162.582 49.9208 162.507 49.5331 162.57C49.2275 162.62 48.9906 162.739 48.8225 162.927C48.6606 163.107 48.5551 163.327 48.506 163.587C48.4557 163.841 48.4532 164.105 48.4984 164.381L49.0505 167.746L47.7759 167.955Z" fill="black"/>
<path d="M61.1785 168.481L60.832 159.611L62.1651 160.017L62.4161 167.377L66.728 161.407L68.0611 161.813L62.8043 168.976L61.1785 168.481Z" fill="black"/>
<path d="M70.6404 165.078C70.4389 164.959 70.3136 164.793 70.2645 164.579C70.2154 164.366 70.2448 164.168 70.3527 163.986C70.4645 163.798 70.624 163.677 70.8311 163.624C71.042 163.565 71.2483 163.595 71.4498 163.714C71.6514 163.833 71.7767 163.999 71.8257 164.213C71.8852 164.423 71.859 164.623 71.7472 164.811C71.6355 165 71.4708 165.122 71.2534 165.177C71.0463 165.23 70.8419 165.197 70.6404 165.078ZM66.504 170.806L69.5682 165.642L70.6799 166.299L67.6157 171.463L66.504 170.806Z" fill="black"/>
<path d="M71.6557 174.885C71.3283 174.572 71.1019 174.235 70.9766 173.875C70.8619 173.514 70.8247 173.15 70.865 172.78C70.9104 172.406 71.0204 172.046 71.1948 171.7C71.3746 171.36 71.5979 171.051 71.8646 170.773C72.1314 170.495 72.4311 170.26 72.7638 170.066C73.1019 169.877 73.4548 169.755 73.8225 169.699C74.1955 169.637 74.5621 169.659 74.9226 169.763C75.2937 169.867 75.643 170.076 75.9705 170.389C76.2434 170.65 76.428 170.911 76.5245 171.17C76.6263 171.435 76.677 171.677 76.6763 171.896C76.6756 172.115 76.6606 172.288 76.6313 172.417L76.6804 172.464L79.1045 169.938L80.0378 170.831L74.0756 177.044L73.1423 176.151L73.7621 175.505L73.7129 175.458C73.5854 175.493 73.4121 175.515 73.1931 175.525C72.9741 175.535 72.73 175.495 72.4608 175.405C72.197 175.319 71.9286 175.146 71.6557 174.885ZM72.6057 174.305C72.8731 174.56 73.1621 174.701 73.4728 174.726C73.7941 174.752 74.1056 174.694 74.4074 174.554C74.7146 174.42 74.9859 174.23 75.2212 173.984C75.4566 173.739 75.6351 173.461 75.7567 173.148C75.8838 172.841 75.9253 172.531 75.8812 172.217C75.8477 171.903 75.6973 171.618 75.4299 171.362C75.1624 171.106 74.8681 170.965 74.5467 170.94C74.2306 170.91 73.919 170.962 73.6118 171.096C73.31 171.236 73.0415 171.429 72.8061 171.674C72.5708 171.919 72.3895 172.195 72.2624 172.502C72.1408 172.815 72.0994 173.13 72.1383 173.45C72.1825 173.764 72.3382 174.049 72.6057 174.305Z" fill="black"/>
<path d="M76.1858 180.942C75.9298 180.505 75.7831 180.084 75.7458 179.677C75.7189 179.272 75.7714 178.892 75.9034 178.535C76.0458 178.18 76.2461 177.857 76.5045 177.566C76.7666 177.282 77.064 177.042 77.3965 176.848C77.7226 176.657 78.074 176.517 78.4508 176.428C78.8276 176.339 79.2057 176.319 79.585 176.369C79.9643 176.418 80.3206 176.556 80.654 176.781C80.9939 177.002 81.2881 177.324 81.5365 177.748C81.804 178.204 81.9347 178.665 81.9286 179.133C81.9328 179.603 81.7901 180.054 81.5005 180.485C81.2212 180.92 80.7849 181.311 80.1915 181.658L79.8883 181.835L77.733 178.16C77.3505 178.419 77.0866 178.753 76.9411 179.162C76.7956 179.57 76.847 179.986 77.0954 180.41C77.2368 180.651 77.3925 180.827 77.5624 180.937C77.7389 181.044 77.9042 181.11 78.0582 181.133C78.2122 181.157 78.3379 181.162 78.4352 181.149C78.5364 181.142 78.587 181.139 78.587 181.139L79.1946 182.175C79.1946 182.175 79.1263 182.193 78.9899 182.229C78.8599 182.261 78.6834 182.281 78.4604 182.289C78.2412 182.304 77.999 182.279 77.734 182.215C77.4689 182.151 77.1993 182.02 76.9253 181.822C76.6578 181.62 76.4113 181.326 76.1858 180.942ZM78.5212 177.713L80.0402 180.302C80.4814 180.009 80.7369 179.676 80.8069 179.303C80.8807 178.936 80.822 178.59 80.6309 178.264C80.4169 177.899 80.1186 177.667 79.7359 177.567C79.3598 177.463 78.9549 177.512 78.5212 177.713Z" fill="black"/>
<path d="M78.5769 187.388C78.4123 186.752 78.4158 186.178 78.5875 185.665C78.7611 185.16 79.049 184.735 79.4511 184.389C79.8551 184.051 80.3167 183.815 80.836 183.681C81.3553 183.547 81.8737 183.531 82.3912 183.631C82.9107 183.739 83.3688 183.972 83.7657 184.33C84.1645 184.695 84.4462 185.195 84.6108 185.832C84.7735 186.461 84.7681 187.027 84.5944 187.532C84.4227 188.045 84.1349 188.47 83.7309 188.808C83.3288 189.154 82.8681 189.394 82.3488 189.527C81.8295 189.661 81.3101 189.674 80.7907 189.567C80.2732 189.466 79.815 189.233 79.4163 188.868C79.0194 188.51 78.7396 188.017 78.5769 187.388ZM79.641 187.114C79.7337 187.472 79.9027 187.748 80.148 187.942C80.3952 188.144 80.6848 188.268 81.0168 188.315C81.3508 188.369 81.686 188.353 82.0224 188.266C82.3661 188.177 82.6673 188.03 82.9258 187.822C83.1935 187.621 83.3866 187.372 83.5051 187.076C83.6255 186.788 83.6393 186.464 83.5466 186.106C83.4539 185.748 83.2839 185.468 83.0368 185.267C82.7896 185.065 82.5 184.941 82.168 184.894C81.8432 184.845 81.509 184.865 81.1653 184.954C80.8288 185.04 80.5268 185.185 80.2591 185.386C79.9914 185.588 79.7982 185.837 79.6797 186.132C79.5612 186.428 79.5483 186.755 79.641 187.114Z" fill="black"/>
<path d="M78.571 195.857L87.2286 196.247L86.8288 197.534L80.1075 197.174L85.8278 200.759L85.4347 202.025L78.6973 201.754L84.437 205.239L84.0373 206.526L76.6763 201.959L77.1466 200.444L83.425 200.703L78.1007 197.371L78.571 195.857Z" fill="black"/>
<path d="M78.8521 209.093C78.6279 209.397 78.3932 209.614 78.1478 209.743C77.898 209.878 77.6644 209.959 77.4469 209.987C77.2294 210.014 77.0549 210.022 76.9233 210.01L76.8829 210.064L77.604 210.595L76.8372 211.634L71.9997 208.076L72.7664 207.037L73.4875 207.567L73.5279 207.513C73.4769 207.391 73.4324 207.222 73.3943 207.007C73.3562 206.791 73.3647 206.544 73.4198 206.266C73.4704 205.994 73.6078 205.706 73.832 205.402C74.1011 205.037 74.4065 204.769 74.7482 204.599C75.0915 204.439 75.4491 204.355 75.821 204.347C76.1989 204.344 76.5706 204.406 76.936 204.534C77.2969 204.668 77.6326 204.85 77.9429 205.078C78.2532 205.306 78.5261 205.572 78.7615 205.877C78.9924 206.187 79.1592 206.521 79.262 206.878C79.3709 207.239 79.3967 207.605 79.3393 207.975C79.2836 208.356 79.1212 208.729 78.8521 209.093ZM77.8169 208.684C78.0366 208.386 78.1383 208.076 78.122 207.755C78.1117 207.438 78.02 207.136 77.8467 206.849C77.669 206.569 77.4432 206.328 77.1694 206.126C76.8956 205.925 76.598 205.781 76.2768 205.695C75.9511 205.615 75.6321 205.615 75.3198 205.694C75.0137 205.779 74.7507 205.97 74.531 206.267C74.3113 206.565 74.2088 206.87 74.2235 207.18C74.2398 207.502 74.3369 207.803 74.5146 208.084C74.6878 208.37 74.9114 208.614 75.1852 208.816C75.459 209.017 75.7588 209.158 76.0845 209.238C76.4057 209.324 76.7194 209.325 77.0256 209.241C77.3334 209.167 77.5972 208.982 77.8169 208.684Z" fill="black"/>
<path d="M68.4958 210.608C68.8666 210.31 69.2184 210.138 69.5511 210.094C69.8838 210.049 70.1904 210.098 70.4706 210.241C70.7498 210.395 70.9961 210.604 71.2095 210.868L73.2014 213.337L74.0225 212.677L74.677 213.488L73.8559 214.148L74.795 215.312L73.7885 216.122L72.8495 214.958L71.7547 215.838L71.1002 215.027L72.195 214.147L70.2172 211.695C69.8615 211.254 69.4394 211.23 68.9509 211.623C68.8273 211.723 68.7196 211.824 68.6279 211.927C68.5362 212.03 68.4903 212.081 68.4903 212.081L67.8287 211.261C67.8287 211.261 67.8928 211.19 68.021 211.048C68.1433 210.911 68.3015 210.764 68.4958 210.608Z" fill="black"/>
<path d="M63.188 213.52C63.6482 213.309 64.0862 213.204 64.5021 213.205C64.9211 213.213 65.3054 213.299 65.655 213.462C66.0077 213.633 66.3196 213.86 66.5908 214.143C66.8551 214.429 67.0676 214.747 67.2283 215.097C67.389 215.447 67.4917 215.816 67.5362 216.202C67.5738 216.592 67.5408 216.973 67.437 217.344C67.3364 217.723 67.1507 218.069 66.8797 218.384C66.612 218.706 66.248 218.972 65.7878 219.183C65.3345 219.39 64.9287 219.493 64.5703 219.491C64.2083 219.499 63.8922 219.444 63.6223 219.327C63.3523 219.209 63.127 219.072 62.9463 218.913C62.7657 218.755 62.6335 218.612 62.5499 218.484C62.4594 218.36 62.4141 218.297 62.4141 218.297L63.5268 217.788C63.5268 217.788 63.5676 217.832 63.6492 217.919C63.7239 218.009 63.8375 218.103 63.9898 218.199C64.1421 218.296 64.3312 218.354 64.557 218.376C64.776 218.4 65.0331 218.345 65.3285 218.21C65.6787 218.049 65.9297 217.826 66.0813 217.541C66.236 217.263 66.3106 216.954 66.305 216.616C66.2926 216.282 66.2123 215.953 66.0642 215.63C65.9161 215.308 65.719 215.032 65.4731 214.804C65.2202 214.579 64.9361 214.431 64.6206 214.359C64.3083 214.295 63.977 214.342 63.6268 214.503C63.3314 214.638 63.1216 214.796 62.9971 214.978C62.8658 215.163 62.787 215.344 62.7608 215.522C62.7345 215.7 62.7313 215.847 62.7511 215.963C62.764 216.081 62.7705 216.141 62.7705 216.141L61.6578 216.65C61.6578 216.65 61.64 216.575 61.6045 216.425C61.5621 216.278 61.5398 216.085 61.5377 215.845C61.5356 215.605 61.5781 215.345 61.6653 215.064C61.7525 214.783 61.9157 214.505 62.1549 214.229C62.3903 213.964 62.7347 213.727 63.188 213.52Z" fill="black"/>
<path d="M59.3665 214.884L60.7606 223.381L59.4859 223.589L58.9228 220.157L58.8557 220.168C58.8206 220.281 58.752 220.422 58.6497 220.592C58.5487 220.769 58.3961 220.936 58.1921 221.092C57.9805 221.249 57.6996 221.356 57.3493 221.413C56.9095 221.485 56.524 221.445 56.1928 221.292C55.8616 221.14 55.594 220.908 55.3899 220.597C55.1783 220.287 55.0395 219.931 54.9735 219.529L54.3461 215.705L55.6208 215.496L56.2261 219.186C56.2848 219.544 56.435 219.829 56.6766 220.042C56.9107 220.256 57.2216 220.332 57.6093 220.268C57.9149 220.218 58.1517 220.099 58.3199 219.911C58.4818 219.732 58.5873 219.512 58.6364 219.251C58.6867 218.998 58.6892 218.733 58.644 218.458L58.0919 215.092L59.3665 214.884Z" fill="black"/>
<path d="M45.9638 214.357L46.3104 223.227L44.9773 222.821L44.7263 215.461L40.4144 221.431L39.0813 221.025L44.3381 213.862L45.9638 214.357Z" fill="black"/>
<path d="M36.502 217.761C36.7035 217.88 36.8288 218.046 36.8779 218.259C36.927 218.473 36.8976 218.67 36.7896 218.852C36.6779 219.041 36.5184 219.161 36.3113 219.214C36.1003 219.274 35.8941 219.244 35.6926 219.125C35.491 219.005 35.3657 218.839 35.3166 218.626C35.2572 218.415 35.2834 218.216 35.3951 218.027C35.5069 217.839 35.6715 217.717 35.889 217.661C36.0961 217.608 36.3004 217.641 36.502 217.761ZM40.6384 212.033L37.5742 217.197L36.4625 216.539L39.5267 211.375L40.6384 212.033Z" fill="black"/>
<path d="M35.4892 207.953C35.8166 208.266 36.043 208.603 36.1684 208.963C36.283 209.324 36.3202 209.689 36.2799 210.058C36.2345 210.433 36.1245 210.793 35.9501 211.138C35.7703 211.478 35.547 211.787 35.2803 212.065C35.0135 212.343 34.7138 212.579 34.3811 212.773C34.043 212.962 33.6901 213.084 33.3224 213.14C32.9494 213.201 32.5828 213.18 32.2223 213.075C31.8512 212.971 31.5019 212.762 31.1744 212.449C30.9015 212.188 30.7169 211.928 30.6204 211.668C30.5186 211.403 30.4679 211.162 30.4686 210.943C30.4693 210.724 30.4843 210.55 30.5136 210.421L30.4645 210.374L28.0404 212.9L27.1071 212.007L33.0693 205.795L34.0026 206.688L33.3828 207.333L33.432 207.38C33.5595 207.346 33.7328 207.323 33.9518 207.313C34.1708 207.303 34.4149 207.343 34.6841 207.434C34.9479 207.519 35.2163 207.692 35.4892 207.953ZM34.5392 208.534C34.2718 208.278 33.9828 208.137 33.6721 208.112C33.3508 208.087 33.0393 208.144 32.7375 208.284C32.4303 208.419 32.159 208.609 31.9237 208.854C31.6883 209.099 31.5098 209.378 31.3882 209.69C31.2611 209.997 31.2196 210.307 31.2637 210.621C31.2972 210.936 31.4476 211.221 31.715 211.477C31.9825 211.732 32.2768 211.873 32.5982 211.898C32.9143 211.929 33.2259 211.877 33.5331 211.742C33.8349 211.602 34.1034 211.41 34.3388 211.164C34.5741 210.919 34.7554 210.643 34.8825 210.336C35.0041 210.024 35.0455 209.708 35.0066 209.389C34.9624 209.075 34.8067 208.79 34.5392 208.534Z" fill="black"/>
<path d="M30.9566 201.896C31.2126 202.333 31.3593 202.755 31.3966 203.162C31.4235 203.566 31.371 203.946 31.239 204.304C31.0966 204.658 30.8963 204.981 30.6379 205.272C30.3757 205.556 30.0784 205.796 29.7458 205.99C29.4198 206.181 29.0684 206.321 28.6916 206.41C28.3147 206.499 27.9367 206.519 27.5574 206.469C27.1781 206.42 26.8218 206.283 26.4884 206.058C26.1485 205.836 25.8543 205.514 25.6059 205.091C25.3384 204.634 25.2077 204.173 25.2138 203.705C25.2096 203.235 25.3523 202.785 25.6419 202.353C25.9212 201.918 26.3575 201.527 26.9509 201.181L27.2541 201.003L29.4094 204.678C29.7918 204.419 30.0558 204.085 30.2013 203.677C30.3468 203.268 30.2954 202.852 30.047 202.428C29.9056 202.187 29.7499 202.011 29.5799 201.901C29.4035 201.794 29.2382 201.729 29.0842 201.705C28.9302 201.681 28.8045 201.676 28.7072 201.689C28.606 201.696 28.5554 201.699 28.5554 201.699L27.9478 200.663C27.9478 200.663 28.016 200.645 28.1525 200.609C28.2825 200.577 28.459 200.557 28.682 200.549C28.9012 200.535 29.1433 200.559 29.4084 200.623C29.6735 200.687 29.943 200.818 30.2171 201.016C30.4846 201.219 30.7311 201.512 30.9566 201.896ZM28.6212 205.125L27.1022 202.536C26.661 202.829 26.4055 203.162 26.3355 203.535C26.2617 203.902 26.3204 204.248 26.5115 204.574C26.7255 204.939 27.0238 205.171 27.4064 205.271C27.7826 205.375 28.1875 205.327 28.6212 205.125Z" fill="black"/>
<path d="M28.5655 195.451C28.7301 196.087 28.7266 196.661 28.5549 197.173C28.3813 197.678 28.0934 198.104 27.6913 198.449C27.2873 198.787 26.8256 199.023 26.3064 199.157C25.7871 199.291 25.2687 199.308 24.7511 199.207C24.2317 199.1 23.7736 198.867 23.3767 198.509C22.9779 198.144 22.6962 197.643 22.5316 197.007C22.3689 196.378 22.3743 195.811 22.5479 195.306C22.7196 194.794 23.0075 194.369 23.4115 194.03C23.8136 193.685 24.2743 193.445 24.7936 193.311C25.3129 193.177 25.8322 193.164 26.3517 193.272C26.8692 193.373 27.3273 193.605 27.7261 193.971C28.123 194.328 28.4028 194.822 28.5655 195.451ZM27.5013 195.725C27.4086 195.367 27.2396 195.091 26.9943 194.896C26.7472 194.695 26.4576 194.571 26.1255 194.524C25.7916 194.469 25.4564 194.486 25.12 194.573C24.7762 194.661 24.4751 194.809 24.2166 195.016C23.9489 195.218 23.7558 195.467 23.6373 195.762C23.5169 196.051 23.5031 196.374 23.5958 196.732C23.6885 197.091 23.8584 197.371 24.1056 197.572C24.3528 197.774 24.6424 197.898 24.9744 197.945C25.2991 197.994 25.6334 197.974 25.9771 197.885C26.3136 197.798 26.6156 197.654 26.8833 197.452C27.151 197.251 27.3441 197.002 27.4627 196.706C27.5812 196.41 27.5941 196.083 27.5013 195.725Z" fill="black"/>
<path d="M62.0281 190.725L49.2346 198.782L49.2346 182.667L62.0281 190.725Z" fill="#2A1E17"/>
<circle cx="788.61" cy="129.564" r="94.6975" fill="#D3B3A7"/>
<circle cx="787.131" cy="129.069" r="84.34" fill="#EDC9BC"/>
<circle cx="787.835" cy="128.369" r="64.3635" fill="white" stroke="#6F5773" stroke-width="2"/>
<circle cx="789.935" cy="124.936" r="17.7558" fill="#F8DAD0" fill-opacity="0.76"/>
<rect x="785.381" y="69.6104" width="4.217" height="8.43399" fill="#E95850" fill-opacity="0.72"/>
<rect x="760.078" y="76.5847" width="4.217" height="8.43399" transform="rotate(-40.6917 760.078 76.5847)" fill="#46274C" fill-opacity="0.78"/>
<rect x="740.4" y="93.4475" width="4.217" height="8.43399" transform="rotate(-40.6917 740.4 93.4475)" fill="#46274C" fill-opacity="0.78"/>
<rect x="729.364" y="124.846" width="4.217" height="8.43399" transform="rotate(-92.8831 729.364 124.846)" fill="#E95850" fill-opacity="0.72"/>
<rect x="738.416" y="156.377" width="4.217" height="8.43399" transform="rotate(-122.01 738.416 156.377)" fill="#46274C" fill-opacity="0.78"/>
<rect x="761.184" y="180.214" width="4.217" height="8.43399" transform="rotate(-158.306 761.184 180.214)" fill="#46274C" fill-opacity="0.78"/>
<rect x="792.373" y="186.781" width="4.217" height="8.43399" transform="rotate(-179.467 792.373 186.781)" fill="#E95850" fill-opacity="0.72"/>
<rect x="824.746" y="174.748" width="4.217" height="8.43399" transform="rotate(143.022 824.746 174.748)" fill="#46274C" fill-opacity="0.78"/>
<rect x="843.214" y="148.504" width="4.217" height="8.43399" transform="rotate(96.0975 843.214 148.504)" fill="#46274C" fill-opacity="0.78"/>
<rect x="846.222" y="125.328" width="4.217" height="8.43399" transform="rotate(96.0975 846.222 125.328)" fill="#E95850" fill-opacity="0.72"/>
<rect x="836.029" y="96.3196" width="4.217" height="8.43399" transform="rotate(56.9694 836.029 96.3196)" fill="#46274C" fill-opacity="0.78"/>
<rect x="809.604" y="76.6431" width="4.217" height="8.43399" transform="rotate(21.862 809.604 76.6431)" fill="#46274C" fill-opacity="0.78"/>
<path d="M788.893 126.539L752.345 101.237C764.996 107.562 790.579 121.338 791.704 125.836C792.828 130.334 791.235 151.138 790.298 160.978L788.893 126.539Z" fill="#6F5773"/>
<path d="M438.922 104.642C492.247 134.204 546.561 226.337 567.052 268.709C639.387 417.749 780.058 723.663 764.06 754.998C744.063 794.167 567.051 806.731 484.099 806.731C417.738 806.731 202.441 806.731 162.664 745.39C40.4594 556.935 147.927 253.351 207.918 175.012C290.564 67.09 372.264 67.6902 438.922 104.642Z" fill="#F2CD87"/>
<path d="M200.01 649.206C169.57 636.346 150.86 603.274 154.549 587.33H571.215L601.259 684.973C497.818 676.54 253.925 671.983 200.01 649.206Z" fill="#E4B061" fill-opacity="0.74"/>
<path d="M230.884 305.697C293.586 231.193 372.271 179.679 403.775 163.235C469.427 575.96 315.869 546.669 230.884 480.432C194.462 461.53 152.507 398.828 230.884 305.697Z" fill="#E4B061" fill-opacity="0.77"/>
<path d="M288.442 263.95C327.014 217.604 380.76 177.861 402.812 163.782C422.372 169.389 451.924 176.939 459.998 169.762C470.089 160.792 513.445 193.683 551.195 239.656C569.812 262.328 594.925 295.844 607.633 308.054C618.846 285.628 622.784 367.975 639.604 341.438L690.995 290.046C669.317 442.54 647.625 447.092 597.541 447.092C557.474 447.092 527.773 406.726 517.93 386.543L517.93 447.092L357.214 447.092C217.054 465.407 206.215 405.979 215.559 376.825C224.903 347.672 240.227 321.883 288.442 263.95Z" fill="white"/>
<path d="M449.352 186.125L440.661 171.105L428.06 186.125C420.412 249.385 413.865 364.742 411.547 414.513H431.102C430.059 393.662 442.834 253.567 449.352 186.125Z" fill="#8697FB"/>
<path d="M413.72 149.674C438.405 146.992 471.975 147.771 477.819 149.674L440.79 169.947L413.72 149.674Z" fill="#46274C"/>
<rect x="71.5358" y="713.721" width="222.141" height="65.6766" rx="6" fill="#5E75FF"/>
<rect x="47.3908" y="779.398" width="287.818" height="62.7791" rx="10" fill="#90AEAD"/>
<rect x="126.59" y="713.721" width="10.6242" height="65.6766" fill="#FBF1DC"/>
<rect x="143.975" y="713.721" width="10.6242" height="65.6766" fill="#FBF1DC"/>
<rect x="82.1603" y="796.781" width="221.176" height="28.0091" fill="white" fill-opacity="0.71"/>
<path d="M82.1885 779.888H259.902" stroke="#46274C" stroke-opacity="0.81" stroke-width="2" stroke-linecap="round"/>
<path d="M474.317 804.086C465.265 808.974 458.795 820.222 457.258 826.677C469.86 826.677 502.072 814.782 509.817 807.774C517.563 800.766 513.044 767.049 509.817 751.066C485.382 773.657 497.369 791.638 474.317 804.086Z" fill="#E95850"/>
<path d="M487.892 71.3796C489.359 64.3598 487.281 57.3401 486.058 54.7077C473.833 48.8579 447.55 38.9132 440.215 45.933C432.88 52.9527 435.936 74.012 438.381 83.6641C425.545 54.7077 399.873 69.6246 399.873 87.174C399.873 101.214 415.765 104.723 423.711 104.723V163.514C443.515 179.659 460.691 170.241 466.804 163.514L468.638 137.19C497.977 128.415 495.227 101.214 491.559 92.4388C487.892 83.6641 486.058 80.1543 487.892 71.3796Z" fill="#EAA296"/>
<ellipse cx="4.69052" cy="9.54323" rx="4.69052" ry="9.54323" transform="matrix(0.987054 -0.160386 0.136365 0.990659 482.245 88.2327)" fill="#E9746E" fill-opacity="0.78"/>
<ellipse cx="7.98517" cy="11.5086" rx="7.98517" ry="11.5086" transform="matrix(0.984571 0.174985 -0.117907 0.993025 444.493 84.9585)" fill="#E9746E" fill-opacity="0.78"/>
<path d="M437.464 131.048C449.2 139.472 463.747 138.653 469.554 137.191L467.603 155.2C451.467 152.392 440.826 137.483 437.464 131.048Z" fill="#46274C"/>
<path d="M416.379 67.8726C429.582 65.7667 436.353 79.8529 438.492 86.2877C438.187 77.5129 439.3 57.8692 442.968 56.4653C447.552 54.7103 475.058 56.4653 486.06 54.7103C497.062 52.9554 504.398 49.4455 505.315 39.7934C506.048 32.0716 502.564 26.6299 496.146 25.7536C471.639 22.4072 431.049 23.9986 423.714 29.2635C417.846 33.4753 416.379 41.548 416.379 45.0579V67.8726Z" fill="#46274C"/>
<path d="M409.958 79.2817L425.888 84.9659L415.459 90.6888" stroke="#46274C" stroke-width="2" stroke-linecap="round"/>
<path d="M466.304 77.0127C465.658 81.7248 462.233 91.1489 453.702 91.1489C443.04 91.1489 441.101 80.7824 441.101 77.0127" stroke="white" stroke-width="2"/>
<path d="M497.59 77.0127C496.62 81.0539 492.937 89.5093 485.957 91.0014C478.978 92.4935 474.002 82.2973 472.387 77.0127" stroke="white" stroke-width="2"/>
<path d="M497.59 77.0127H435.016" stroke="white" stroke-width="2" stroke-linecap="round"/>
<path d="M401.869 164.633L414.968 148.727L440.533 170.597L478.08 149.025L485.422 177.731C424.877 171.268 407.992 170.935 401.869 164.633Z" fill="white"/>
<path d="M428.497 186.566C419.682 260.287 411.55 381.823 411.55 416.721" stroke="#46274C" stroke-width="2"/>
<path d="M448.687 184.539L431.102 404.795" stroke="#46274C" stroke-width="2"/>
<path d="M483.679 177.732L457.889 199.669L440.269 171.246L420.117 196.96L401.455 162.663" stroke="#46274C" stroke-width="2"/>
<ellipse cx="4.24628" cy="4.19376" rx="4.24628" ry="4.19376" transform="matrix(-0.924625 -0.380878 -0.370247 0.928933 443.498 193.739)" fill="white"/>
<ellipse cx="4.24628" cy="4.19376" rx="4.24628" ry="4.19376" transform="matrix(-0.924625 -0.380878 -0.370247 0.928933 440.266 236.249)" fill="white"/>
<path d="M507.156 25.3907C513.671 32.384 513.807 55.4071 484.651 52.592" stroke="#46274C" stroke-width="2" stroke-linecap="round"/>
<path d="M605.354 311.586C603.326 324.986 599.27 354.083 599.27 363.272" stroke="#46274C" stroke-width="2" stroke-linecap="round"/>
<ellipse cx="5.43558" cy="3.13356" rx="5.43558" ry="3.13356" transform="matrix(-0.970601 -0.240693 -0.233321 0.9724 440.476 426.822)" fill="white" fill-opacity="0.63"/>
<path d="M853.368 755.941L839.01 707.973L741.788 748.215L759.62 797.502L853.368 755.941Z" fill="#EAA296"/>
<path d="M852.501 755.615L861.062 786.551C871.552 852.236 808.82 855.067 776.143 848.272L758.754 797.176L852.501 755.615Z" fill="white"/>
<path d="M817.769 840.435L764.25 808.597C725.173 854.735 734.553 907.583 744.128 928.24L1026.72 837.072C1023.58 827.022 1016.17 801.793 1003.05 791.254C983.094 775.216 885.259 798.059 867.835 807.005C853.896 814.162 837.083 830.903 817.769 840.435Z" fill="#E95850"/>
<path d="M1021.18 820.332L740.817 908.453C736.193 909.906 741.111 922.263 744.148 928.26L1026.05 836.797L1021.18 820.332Z" fill="#46274C"/>
<path d="M887.491 802.47L852.886 840.956" stroke="#46274C" stroke-width="3" stroke-linecap="round"/>
<path d="M867.101 806.415L826.087 838.958" stroke="#46274C" stroke-width="3" stroke-linecap="round"/>
<path d="M1019.55 821.431L739.537 908.256" stroke="white" stroke-width="4" stroke-linecap="round"/>
<path d="M575.566 520.916L526.942 515.78L550.102 595.525L594.541 588.911L575.566 520.916Z" fill="#E97E77"/>
<path d="M575.957 522.891L609.56 519.729C668.18 518.81 654.801 563.3 642.828 582.825L617.861 589.216L595.501 589.216L575.957 522.891Z" fill="white"/>
<path d="M643.852 556.561L608.77 588.12C641.259 616.04 686.209 613.397 705.818 609.249L680.032 427.764C670.775 428.852 647.627 431.283 636.082 438.463C618.516 449.387 619.922 511.483 624.38 522.953C627.946 532.128 639.242 543.879 643.852 556.561Z" fill="#ECE9E8"/>
<path d="M664.556 429.763L688.131 609.617C688.52 612.584 700.099 610.6 705.84 609.237L679.668 428.155L664.556 429.763Z" fill="#46274C"/>
<path d="M624.144 510.483L650.869 535.008" stroke="#46274C" stroke-width="3" stroke-linecap="round"/>
<path d="M665.198 430.856L687.721 610.389" stroke="white" stroke-width="4" stroke-linecap="round"/>
<path d="M305.264 370.102L362.449 308.805C353.062 329.666 338.656 370.862 353.995 373.84H357.964C356.464 374.071 355.145 374.063 353.995 373.84H330.472L305.264 370.102Z" fill="#ECE9E8"/>
<path d="M296.665 370.474C310.185 370.474 319.867 374.959 358.709 374.959" stroke="#46274C" stroke-width="2"/>
<path d="M209.893 491.663C260.194 463.93 354.088 447.959 379.485 441.567C562.122 491.661 691.332 405.572 729.797 441.565C768.263 477.559 811.173 579.027 887.469 691.298L714.263 772.734L631.303 524.473H539.589C545.914 542.658 558.423 634.682 562.122 657.3C418.226 647.417 244.66 636.344 234.008 635.164C220.692 633.688 157.991 624.483 151.333 584.654C144.676 544.825 147.017 526.329 209.893 491.663Z" fill="#9872EF"/>
<path d="M550.366 275.077H678.343C681.317 275.077 683.633 277.658 683.314 280.615L662.996 468.652H505.858L545.472 279.055C545.956 276.738 547.999 275.077 550.366 275.077Z" fill="white" stroke="#46274C" stroke-width="2" stroke-linecap="round"/>
<path d="M421.71 449.904L519.435 451.181L517.042 469.99H467.07L416.645 465.395V454.904C416.645 452.117 418.923 449.868 421.71 449.904Z" fill="#46274C"/>
<path d="M559.889 273.842H707.349C710.525 273.842 712.896 276.764 712.242 279.871L672.066 470.836L515.533 468.582L554.993 277.829C555.473 275.507 557.518 273.842 559.889 273.842Z" fill="#46274C"/>
<ellipse cx="13.9444" cy="22.1932" rx="13.9444" ry="22.1932" transform="matrix(-0.989131 -0.147039 -0.147039 0.989131 635.616 349.374)" fill="white" fill-opacity="0.47"/>
<path d="M537.478 525.153C507.203 528.227 432.084 532.53 373.808 525.153" stroke="#46274C" stroke-opacity="0.73" stroke-width="2"/>
<path d="M684.01 430.379L660.356 415.008C656.422 408.889 664.078 397.334 668.312 395.508L671.574 392.594C675.926 384.992 679.622 377.383 678.578 370.191C677.65 363.791 668.427 338.699 674.293 335.487C678.985 332.917 686.594 344.307 688.664 347.535C687.186 336.757 688.452 324.725 694.843 326.334C699.955 327.62 700.337 333.802 700.61 339.093C708.88 317.265 715.182 309.882 716.182 319.32C719.416 349.859 726.431 371.939 684.01 430.379Z" fill="#EAA296"/>
<path d="M702.004 341.975C702.655 346.56 703.987 356.836 704.105 361.257" stroke="#46274C" stroke-width="2" stroke-linecap="round"/>
<path d="M687.432 345.966C690.263 352.929 695.641 368.158 694.51 373.362C693.379 378.566 692.056 380.52 691.536 380.847" stroke="#46274C" stroke-width="2" stroke-linecap="round"/>
<ellipse cx="6.01369" cy="2.60929" rx="6.01369" ry="2.60929" transform="matrix(-0.173872 -0.984768 0.999845 -0.0176019 695.765 339.284)" fill="white" fill-opacity="0.63"/>
<ellipse cx="4.63937" cy="2.60929" rx="4.63937" ry="2.60929" transform="matrix(0.150272 -0.988645 0.952941 0.303155 710.395 325.035)" fill="white" fill-opacity="0.63"/>
<ellipse cx="5.42061" cy="2.77846" rx="5.42061" ry="2.77846" transform="matrix(-0.676262 -0.736661 0.813002 -0.582261 681.21 347.068)" fill="white" fill-opacity="0.63"/>
<path d="M673.208 646.626C622.924 633.975 599.811 603.404 594.54 589.7H611.934C628.063 602.666 651.861 609.07 661.744 610.652L673.208 646.626Z" fill="#E4B061"/>
<path d="M362.683 405L364.632 432.444C368.363 438.681 383.536 437.557 387.564 434.795L392.108 433.373C401.721 433.22 410.988 433.631 417.302 437.9C422.92 441.698 441.941 461.363 448.173 457.855C453.159 455.049 446.369 443.195 444.399 439.91C453.907 446.233 466.093 450.798 467.999 444.578C469.524 439.602 463.82 436.374 458.908 433.657C484.235 436.831 494.689 434.908 486.205 429.623C458.749 412.521 441.419 396.157 362.683 405Z" fill="#EAA296"/>
<path d="M456.902 431.112C452.868 428.402 443.761 422.439 439.598 420.263" stroke="#46274C" stroke-width="2" stroke-linecap="round"/>
<path d="M445.23 441.701C440.097 436.012 428.436 424.264 422.851 422.788C417.265 421.312 414.684 421.526 414.091 421.818" stroke="#46274C" stroke-width="2" stroke-linecap="round"/>
<ellipse cx="6.32936" cy="2.62519" rx="6.32936" ry="2.62519" transform="matrix(0.805556 0.580489 0.55228 -0.841631 456.11 437.71)" fill="white" fill-opacity="0.63"/>
<ellipse cx="5.03059" cy="2.55765" rx="5.03059" ry="2.55765" transform="matrix(0.94642 0.309487 0.228209 -0.976547 477.615 431.89)" fill="white" fill-opacity="0.63"/>
<path d="M376.619 555.142C392.229 547.15 406.619 541.343 420.384 532.265" stroke="#46274C" stroke-opacity="0.73" stroke-width="2"/>
<ellipse cx="5.36553" cy="2.98584" rx="5.36553" ry="2.98584" transform="matrix(0.343377 0.9336 0.925733 -0.392613 440.824 446.506)" fill="white" fill-opacity="0.63"/>
<path d="M371.352 446.348C395.174 450.193 394.549 430.276 422.802 442.594C416.529 434.224 400.577 429.264 389.868 432.319C381.3 434.762 372.38 434.247 371.352 434.014L371.352 446.348Z" fill="#E97E77"/>
<path d="M375.904 445.974L381.571 377.583L362.136 375.714L356.842 445.974L375.904 445.974Z" fill="#8697FB"/>
<path d="M743.105 455.075C825.631 624.278 843.612 697.583 843.612 710.954L892.943 691.129C858.642 654.614 789.209 519.621 743.105 455.075Z" fill="#B88CF6"/>
<path d="M506.445 808.952L509.214 750.729C562.008 758.061 595.071 801.85 606.593 823.395L410.349 947.464C404.066 938.003 388.077 914.58 385.882 898.034C382.543 872.856 443.811 823.535 458.455 818.314C470.171 814.138 490.506 815.02 506.445 808.952Z" fill="#DD3728"/>
<path d="M400.02 931.504L592.932 806.716C596.114 804.658 603.368 817 606.598 823.429L410.439 946.813L400.02 931.504Z" fill="#46274C"/>
<path d="M446.19 828.269L491.128 833.03" stroke="#46274C" stroke-width="3" stroke-linecap="round"/>
<path d="M458.333 817.392L501.593 813.488" stroke="#46274C" stroke-width="3" stroke-linecap="round"/>
<path d="M672.103 422.804C657.254 412.006 668.722 398.83 672.103 392.836C666.11 395.602 660.761 400.674 658.733 410.817C655.966 424.648 670.258 436.635 679.94 434.33C687.685 432.486 695.154 415.581 698.381 408.512C694.232 414.505 682.246 430.181 672.103 422.804Z" fill="#E97E77"/>
<path d="M401.588 931.205L593.355 805.703" stroke="white" stroke-width="4" stroke-linecap="round"/>
</svg>
