<svg width="97" height="98" viewBox="0 0 97 98" fill="none" xmlns="http://www.w3.org/2000/svg">
<circle cx="48.734" cy="48.9338" r="48.2536" fill="#D9ECFF"/>
<rect x="34.9438" y="56.2135" width="28.0933" height="7.02333" rx="3.51167" stroke="#2F2B6D" stroke-width="2"/>
<path d="M35.8533 47.0427L41.9671 56.2135H56.0138L62.1276 47.0427C62.563 46.3897 62.7807 46.0632 62.7455 45.7074C62.7102 45.3516 62.4327 45.0741 61.8777 44.5191L48.9905 31.6318L36.1032 44.5191C35.5482 45.0741 35.2707 45.3516 35.2354 45.7074C35.2002 46.0632 35.4179 46.3897 35.8533 47.0427Z" stroke="#2F2B6D" stroke-width="2"/>
<path d="M53.258 47.4342C53.258 49.7911 51.3473 51.7017 48.9905 51.7017C46.6336 51.7017 44.723 49.7911 44.723 47.4342C44.723 45.0774 46.6336 43.1667 48.9905 43.1667C51.3473 43.1667 53.258 45.0774 53.258 47.4342Z" stroke="#2F2B6D" stroke-width="2"/>
<path d="M48.9905 31.6318V43.9227" stroke="#2F2B6D" stroke-width="2"/>
</svg>
